<?xml version="1.0" ?><!DOCTYPE svg  PUBLIC '-//W3C//DTD SVG 1.1//EN'  'http://www.w3.org/Graphics/SVG/1.1/DTD/svg11.dtd'><svg height="1392.000" viewBox="-695.000 -696.000 1391.000 1392.000" width="1391.000" xmlns="http://www.w3.org/2000/svg"><line fill="none" stroke="none" stroke-linecap="round" stroke-width="2.0" x1="0.0" x2="0.0" y1="0.0" y2="0.0"/><text fill="#000" font-family="Liberation Sans" font-size="89.0pt" font-weight="bold" stroke-width="0.0" text-anchor="middle" x="-0.9999999999999967" y="29">Darlloz</text><text fill="#000" font-family="Liberation Sans" font-size="80.0pt" font-weight="bold" stroke-width="0.0" text-anchor="middle" x="-0.999999999999924" y="225">2014</text><polyline fill="none" points="2.8656735100048065e-13,520.0 54.35480089918008,517.151385591502 108.11407922523512,508.6367523815788 160.6888370749729,494.54938847347967 211.50305439941633,475.04363797415226 260.00000000000017,450.33320996790786 305.6483311920862,420.6888370749724 347.9479153066064,386.4353092482447 386.43530924824506,347.947915306606 420.68883707497264,305.6483311920857 450.33320996790803,259.9999999999997 475.0436379741524,211.50305439941584 494.5493884734797,160.6888370749724 508.63675238157873,108.11407922523463 517.1513855915019,54.35480089917963 519.9999999999998,-1.2789769243681803e-13 517.1513855915018,-54.35480089917988 508.6367523815786,-108.11407922523486 494.5493884734795,-160.6888370749726 475.0436379741521,-211.503054399416 450.3332099679077,-259.9999999999998 420.68883707497224,-305.6483311920857 386.4353092482446,-347.94791530660586 347.9479153066059,-386.4353092482445 305.6483311920857,-420.68883707497207 259.9999999999997,-450.3332099679074 211.50305439941587,-475.0436379741517 160.6888370749725,-494.54938847347904 108.11407922523478,-508.63675238157805 54.35480089917982,-517.1513855915013 1.2079226507921703e-13,-519.9999999999991 -54.35480089917957,-517.1513855915013 -108.11407922523452,-508.63675238157805 -160.6888370749722,-494.549388473479 -211.50305439941553,-475.0436379741516 -259.9999999999993,-450.33320996790724 -305.6483311920852,-420.68883707497184 -347.94791530660535,-386.43530924824427 -386.435309248244,-347.94791530660564 -420.6888370749715,-305.6483311920855 -450.33320996790684,-259.99999999999955 -475.0436379741511,-211.50305439941576 -494.5493884734784,-160.68883707497244" stroke="#000" stroke-linecap="round" stroke-linejoin="round" stroke-width="15.0"/><polyline fill="none" points="-494.5493884734784,-160.68883707497244 -508.6367523815774,-108.11407922523478 -517.1513855915006,-54.35480089917987 -519.9999999999984,-2.2737367544323206e-13 -517.1513855915006,54.35480089917941 -508.63675238157737,108.11407922523429 -494.5493884734783,160.68883707497193 -475.04363797415095,211.5030543994152 -450.33320996790667,259.9999999999989 -420.68883707497133,305.6483311920848 -386.43530924824375,347.9479153066049 -347.9479153066051,386.43530924824347 -305.648331192085,420.688837074971 -259.9999999999991,450.3332099679063 -211.50305439941536,475.0436379741506 -160.68883707497207,494.5493884734779 -108.11407922523445,508.6367523815769 -54.35480089917959,517.1513855915001 1.4210854715202004e-14,519.999999999998" stroke="#000" stroke-linecap="round" stroke-linejoin="round" stroke-width="15.0"/><polyline fill="none" points="2.635085452799977e-13,594.9999999999978 51.85766693485669,592.7358453645865 103.32066571182345,585.9606130422617" stroke="#0ff" stroke-linecap="round" stroke-linejoin="round" stroke-width="15.0"/><polyline fill="none" points="203.50198527877245,559.1171093676135 251.45786573571553,539.2531332868048 297.4999999999992,515.2851152517391" stroke="#0ff" stroke-linecap="round" stroke-linejoin="round" stroke-width="15.0"/><polyline fill="none" points="382.45862776348974,455.79644365579014 420.7285348059945,420.72853480599406 455.79644365579054,382.4586277634893" stroke="#0ff" stroke-linecap="round" stroke-linejoin="round" stroke-width="15.0"/><polyline fill="none" points="515.2851152517394,297.49999999999864 539.253133286805,251.45786573571493 559.1171093676137,203.5019852787718" stroke="#0ff" stroke-linecap="round" stroke-linejoin="round" stroke-width="15.0"/><polyline fill="none" points="585.9606130422619,103.32066571182274 592.7358453645867,51.85766693485594 594.9999999999981,-5.258016244624741e-13" stroke="#0ff" stroke-linecap="round" stroke-linejoin="round" stroke-width="15.0"/><polyline fill="none" points="585.9606130422619,-103.3206657118238 574.7258666419938,-153.99733183599997 559.1171093676137,-203.50198527877288" stroke="#0ff" stroke-linecap="round" stroke-linejoin="round" stroke-width="15.0"/><polyline fill="none" points="515.2851152517393,-297.4999999999997 487.39546635194847,-341.277979628872 455.7964436557903,-382.45862776349037" stroke="#0ff" stroke-linecap="round" stroke-linejoin="round" stroke-width="15.0"/><polyline fill="none" points="382.4586277634894,-455.79644365579117 341.277979628871,-487.39546635194927 297.49999999999864,-515.2851152517401" stroke="#0ff" stroke-linecap="round" stroke-linejoin="round" stroke-width="15.0"/><polyline fill="none" points="203.50198527877174,-559.1171093676144 153.9973318359988,-574.7258666419945 103.32066571182261,-585.9606130422626" stroke="#0ff" stroke-linecap="round" stroke-linejoin="round" stroke-width="15.0"/><polyline fill="none" points="-7.247535904753022e-13,-594.9999999999987 -51.85766693485723,-592.7358453645874 -103.32066571182406,-585.9606130422626" stroke="#0ff" stroke-linecap="round" stroke-linejoin="round" stroke-width="15.0"/><polyline fill="none" points="-203.50198527877316,-559.1171093676144 -251.45786573571633,-539.2531332868057 -297.50000000000006,-515.28511525174" stroke="#0ff" stroke-linecap="round" stroke-linejoin="round" stroke-width="15.0"/><polyline fill="none" points="-382.4586277634907,-455.796443655791 -420.7285348059955,-420.72853480599485 -455.79644365579156,-382.45862776349003" stroke="#0ff" stroke-linecap="round" stroke-linejoin="round" stroke-width="15.0"/><polyline fill="none" points="-515.2851152517404,-297.49999999999926 -539.2531332868061,-251.4578657357155 -559.1171093676148,-203.5019852787723" stroke="#0ff" stroke-linecap="round" stroke-linejoin="round" stroke-width="15.0"/><polyline fill="none" points="-585.960613042263,-103.32066571182314 -592.7358453645878,-51.85766693485628 -594.9999999999992,2.3447910280083306e-13" stroke="#0ff" stroke-linecap="round" stroke-linejoin="round" stroke-width="15.0"/><polyline fill="none" points="-585.960613042263,103.32066571182361 -574.7258666419949,153.9973318359998 -559.1171093676148,203.50198527877274" stroke="#0ff" stroke-linecap="round" stroke-linejoin="round" stroke-width="15.0"/><polyline fill="none" points="-515.2851152517404,297.49999999999966 -487.39546635194955,341.277979628872 -455.7964436557914,382.4586277634904" stroke="#0ff" stroke-linecap="round" stroke-linejoin="round" stroke-width="15.0"/><polyline fill="none" points="-382.4586277634904,455.79644365579134 -341.277979628872,487.39546635194944 -297.49999999999966,515.2851152517403" stroke="#0ff" stroke-linecap="round" stroke-linejoin="round" stroke-width="15.0"/><polyline fill="none" points="-203.50198527877268,559.1171093676147 -153.9973318359997,574.7258666419948 -103.32066571182347,585.9606130422629" stroke="#0ff" stroke-linecap="round" stroke-linejoin="round" stroke-width="15.0"/><polyline fill="none" points="-3.552713678800501e-14,594.9999999999991 51.85766693485652,592.7358453645877 103.32066571182341,585.9606130422629" stroke="#0ff" stroke-linecap="round" stroke-linejoin="round" stroke-width="15.0"/><polyline fill="none" points="1.1541061042132176e-13,669.9999999999992 58.39434764093102,667.4504477214687 116.34427903684329,659.8211945181786" stroke="#f00" stroke-linecap="round" stroke-linejoin="round" stroke-width="15.0"/><polyline fill="none" points="229.15349602819788,629.5940559265578 283.1542353662684,607.2262173145547 334.9999999999997,580.2370205355732" stroke="#f00" stroke-linecap="round" stroke-linejoin="round" stroke-width="15.0"/><polyline fill="none" points="430.667698489981,513.2497768897147 473.7615433949864,473.76154339498623 513.2497768897148,430.6676984899808" stroke="#f00" stroke-linecap="round" stroke-linejoin="round" stroke-width="15.0"/><polyline fill="none" points="580.2370205355733,334.99999999999955 607.2262173145548,283.1542353662682 629.5940559265579,229.1534960281977" stroke="#f00" stroke-linecap="round" stroke-linejoin="round" stroke-width="15.0"/><polyline fill="none" points="659.8211945181786,116.3442790368431 667.4504477214687,58.39434764093079 669.9999999999992,-1.4210854715202004e-13" stroke="#f00" stroke-linecap="round" stroke-linejoin="round" stroke-width="15.0"/><polyline fill="none" points="659.8211945181786,-116.3442790368434 647.170303613675,-173.40876021868894 629.5940559265579,-229.15349602819805" stroke="#f00" stroke-linecap="round" stroke-linejoin="round" stroke-width="15.0"/><polyline fill="none" points="580.2370205355733,-334.99999999999994 548.8318696736239,-384.2962123552008 513.2497768897148,-430.66769848998126" stroke="#f00" stroke-linecap="round" stroke-linejoin="round" stroke-width="15.0"/><polyline fill="none" points="430.66769848998086,-513.2497768897151 384.2962123552004,-548.8318696736243 334.99999999999955,-580.2370205355737" stroke="#f00" stroke-linecap="round" stroke-linejoin="round" stroke-width="15.0"/><polyline fill="none" points="229.15349602819765,-629.5940559265586 173.40876021868854,-647.1703036136757 116.34427903684298,-659.8211945181794" stroke="#f00" stroke-linecap="round" stroke-linejoin="round" stroke-width="15.0"/><polyline fill="none" points="-3.410605131648481e-13,-670.0 -58.394347640931315,-667.4504477214696 -116.34427903684366,-659.8211945181795" stroke="#f00" stroke-linecap="round" stroke-linejoin="round" stroke-width="15.0"/><polyline fill="none" points="-229.15349602819836,-629.5940559265588 -283.15423536626895,-607.2262173145557 -335.00000000000034,-580.2370205355742" stroke="#f00" stroke-linecap="round" stroke-linejoin="round" stroke-width="15.0"/><polyline fill="none" points="-430.6676984899817,-513.2497768897156 -473.7615433949872,-473.76154339498714 -513.2497768897157,-430.66769848998166" stroke="#f00" stroke-linecap="round" stroke-linejoin="round" stroke-width="15.0"/><polyline fill="none" points="-580.2370205355744,-335.0000000000003 -607.226217314556,-283.1542353662689 -629.5940559265592,-229.15349602819833" stroke="#f00" stroke-linecap="round" stroke-linejoin="round" stroke-width="15.0"/><polyline fill="none" points="-659.82119451818,-116.34427903684357 -667.4504477214701,-58.39434764093119 -670.0000000000007,-1.7763568394002505e-13" stroke="#f00" stroke-linecap="round" stroke-linejoin="round" stroke-width="15.0"/><polyline fill="none" points="-659.8211945181802,116.34427903684323 -647.1703036136765,173.40876021868885 -629.5940559265595,229.15349602819805" stroke="#f00" stroke-linecap="round" stroke-linejoin="round" stroke-width="15.0"/><polyline fill="none" points="-580.2370205355749,335.0000000000001 -548.8318696736254,384.2962123552011 -513.2497768897161,430.6676984899816" stroke="#f00" stroke-linecap="round" stroke-linejoin="round" stroke-width="15.0"/><polyline fill="none" points="-430.6676984899821,513.2497768897157 -384.29621235520165,548.831869673625 -335.00000000000074,580.2370205355744" stroke="#f00" stroke-linecap="round" stroke-linejoin="round" stroke-width="15.0"/><polyline fill="none" points="-229.15349602819873,629.5940559265592 -173.40876021868954,647.1703036136764 -116.34427903684389,659.8211945181802" stroke="#f00" stroke-linecap="round" stroke-linejoin="round" stroke-width="15.0"/><polyline fill="none" points="-4.050093593832571e-13,670.0000000000008 58.39434764093065,667.4504477214704 116.34427903684309,659.8211945181803" stroke="#f00" stroke-linecap="round" stroke-linejoin="round" stroke-width="15.0"/><line fill="none" stroke="none" stroke-linecap="round" stroke-width="2.0" x1="0.0" x2="0.0" y1="0.0" y2="0.0"/><polygon fill="none" fill-rule="evenodd" points="0.0,0.0 0.0,0.0 0.0,0.0" stroke-linejoin="round"/></svg>