<?xml version="1.0" ?><!DOCTYPE svg  PUBLIC '-//W3C//DTD SVG 1.1//EN'  'http://www.w3.org/Graphics/SVG/1.1/DTD/svg11.dtd'><svg height="1571.000" viewBox="-785.000 -785.000 1571.000 1571.000" width="1571.000" xmlns="http://www.w3.org/2000/svg"><line fill="none" stroke="none" stroke-linecap="round" stroke-width="2.0" x1="0.0" x2="0.0" y1="0.0" y2="0.0"/><text fill="#000" font-family="Liberation Sans" font-size="97.0pt" font-weight="bold" stroke-width="0.0" text-anchor="middle" x="-0.999999999999993" y="87">Echobot</text><text fill="#000" font-family="Liberation Sans" font-size="80.0pt" font-weight="bold" stroke-width="0.0" text-anchor="middle" x="-0.9999999999998995" y="305">2019</text><polyline fill="none" points="4.188292053083948e-13,760.0 79.44163208341705,755.8366404798877 158.01288502149748,743.3921765576922 234.85291572496038,722.8029523843165 309.11984873760844,694.2945478083765 380.0000000000002,658.1793068761731 446.7167917422797,614.8529157249598 508.53926083273234,564.7900673628193 564.7900673628196,508.5392608327319 614.85291572496,446.7167917422792 658.1793068761732,379.99999999999966 694.2945478083765,309.11984873760787 722.8029523843164,234.8529157249598 743.392176557692,158.01288502149688 755.8366404798874,79.4416320834165 759.9999999999995,-7.105427357601002e-14 755.8366404798873,-79.44163208341664 743.3921765576918,-158.01288502149703 722.8029523843162,-234.85291572495987 694.2945478083761,-309.11984873760787 658.1793068761729,-379.9999999999996 614.8529157249595,-446.71679174227904 564.7900673628192,-508.5392608327316 508.5392608327318,-564.7900673628188 446.7167917422792,-614.8529157249592 379.9999999999997,-658.1793068761724 309.119848737608,-694.2945478083756 234.85291572495998,-722.8029523843155 158.01288502149714,-743.392176557691 79.44163208341682,-755.8366404798863 3.268496584496461e-13,-759.9999999999985 -79.44163208341615,-755.8366404798862 -158.01288502149646,-743.3921765576907 -234.85291572495925,-722.8029523843152 -309.1198487376072,-694.2945478083751 -379.99999999999886,-658.1793068761718 -446.71679174227825,-614.8529157249586 -508.53926083273075,-564.7900673628183 -564.7900673628179,-508.539260832731 -614.8529157249582,-446.7167917422784 -658.1793068761714,-379.999999999999 -694.2945478083745,-309.1198487376073 -722.8029523843145,-234.85291572495936" stroke="#000" stroke-linecap="round" stroke-linejoin="round" stroke-width="15.0"/><polyline fill="none" points="-722.8029523843145,-234.85291572495936 -743.3921765576899,-158.01288502149663 -755.8366404798853,-79.44163208341638 -759.9999999999975,2.842170943040401e-14 -755.8366404798852,79.44163208341644 -743.3921765576897,158.01288502149666 -722.8029523843142,234.85291572495936 -694.2945478083742,309.11984873760724 -658.1793068761709,379.99999999999886 -614.8529157249577,446.71679174227825 -564.7900673628175,508.5392608327307 -508.53926083273024,564.7900673628178 -446.71679174227774,614.852915724958 -379.99999999999835,658.1793068761712 -309.11984873760673,694.2945478083743 -234.85291572495885,722.8029523843143 -158.01288502149617,743.3921765576897 -79.441632083416,755.8366404798851 3.552713678800501e-13,759.9999999999973" stroke="#000" stroke-linecap="round" stroke-linejoin="round" stroke-width="15.0"/><line fill="none" stroke="none" stroke-linecap="round" stroke-width="2.0" x1="0.0" x2="0.0" y1="0.0" y2="0.0"/><polygon fill="none" fill-rule="evenodd" points="0.0,0.0 0.0,0.0 0.0,0.0" stroke-linejoin="round"/></svg>