<?xml version="1.0" ?><!DOCTYPE svg  PUBLIC '-//W3C//DTD SVG 1.1//EN'  'http://www.w3.org/Graphics/SVG/1.1/DTD/svg11.dtd'><svg height="1271.000" viewBox="-635.000 -635.000 1271.000 1271.000" width="1271.000" xmlns="http://www.w3.org/2000/svg"><line fill="none" stroke="none" stroke-linecap="round" stroke-width="2.0" x1="0.0" x2="0.0" y1="0.0" y2="0.0"/><text fill="#000" font-family="Liberation Sans" font-size="92.0pt" font-weight="bold" stroke-width="0.0" text-anchor="middle" x="-0.9999999999999952" y="52">Elknot</text><text fill="#000" font-family="Liberation Sans" font-size="80.0pt" font-weight="bold" stroke-width="0.0" text-anchor="middle" x="-0.9999999999999147" y="255">2015</text><polyline fill="none" points="3.3616554636594846e-13,610.0 63.76236259326894,606.6583561746467 126.8261313988335,596.6700364476213 188.5003665687182,580.1444749400436 248.10935227623835,557.2627291619864 305.00000000000017,528.2754963085074 358.5490038984087,493.5003665687177 408.16966987890356,453.31834354121025 453.3183435412105,408.1696698789033 493.5003665687179,358.5490038984084 528.2754963085074,304.9999999999998 557.2627291619863,248.10935227623793 580.1444749400433,188.50036656871777 596.670036447621,126.82613139883307 606.6583561746462,63.76236259326855 609.9999999999994,-7.105427357601002e-15 606.6583561746461,-63.762362593268556 596.6700364476208,-126.82613139883307 580.144474940043,-188.5003665687177 557.2627291619858,-248.10935227623781 528.2754963085068,-304.9999999999996 493.5003665687172,-358.5490038984081 453.31834354120974,-408.16966987890294 408.1696698789028,-453.3183435412098 358.54900389840793,-493.50036656871714 304.9999999999994,-528.2754963085067 248.1093522762376,-557.2627291619856 188.50036656871748,-580.1444749400426 126.82613139883284,-596.6700364476203 63.76236259326838,-606.6583561746455 -1.1368683772161603e-13,-609.9999999999987 -63.7623625932686,-606.6583561746454 -126.82613139883304,-596.6700364476201 -188.50036656871762,-580.1444749400423 -248.10935227623767,-557.2627291619851 -304.9999999999994,-528.2754963085061 -358.5490038984078,-493.5003665687166 -408.1696698789026,-453.3183435412092 -453.3183435412094,-408.1696698789023 -493.5003665687167,-358.54900389840753 -528.2754963085063,-304.99999999999903 -557.2627291619851,-248.1093522762373 -580.1444749400422,-188.50036656871725" stroke="#000" stroke-linecap="round" stroke-linejoin="round" stroke-width="15.0"/><polyline fill="none" points="-580.1444749400422,-188.50036656871725 -596.6700364476199,-126.82613139883269 -606.6583561746451,-63.762362593268286 -609.9999999999983,1.4210854715202004e-13 -606.6583561746451,63.76236259326856 -596.6700364476197,126.82613139883294 -580.144474940042,188.50036656871748 -557.2627291619849,248.10935227623747 -528.275496308506,304.99999999999915 -493.50036656871646,358.5490038984076 -453.3183435412091,408.1696698789023 -408.16966987890225,453.3183435412091 -358.5490038984075,493.5003665687164 -304.99999999999903,528.2754963085059 -248.10935227623736,557.2627291619848 -188.50036656871737,580.1444749400418 -126.82613139883284,596.6700364476195 -63.76236259326849,606.6583561746447 -1.1368683772161603e-13,609.999999999998" stroke="#000" stroke-linecap="round" stroke-linejoin="round" stroke-width="15.0"/><line fill="none" stroke="none" stroke-linecap="round" stroke-width="2.0" x1="0.0" x2="0.0" y1="0.0" y2="0.0"/><polygon fill="none" fill-rule="evenodd" points="0.0,0.0 0.0,0.0 0.0,0.0" stroke-linejoin="round"/></svg>