<?xml version="1.0" ?><!DOCTYPE svg  PUBLIC '-//W3C//DTD SVG 1.1//EN'  'http://www.w3.org/Graphics/SVG/1.1/DTD/svg11.dtd'><svg height="1211.000" viewBox="-605.000 -605.000 1211.000 1211.000" width="1211.000" xmlns="http://www.w3.org/2000/svg"><line fill="none" stroke="none" stroke-linecap="round" stroke-width="2.0" x1="0.0" x2="0.0" y1="0.0" y2="0.0"/><text fill="#000" font-family="Liberation Sans" font-size="91.0pt" font-weight="bold" stroke-width="0.0" text-anchor="middle" x="-0.9999999999999957" y="44">NewAidra</text><text fill="#000" font-family="Liberation Sans" font-size="80.0pt" font-weight="bold" stroke-width="0.0" text-anchor="middle" x="-0.9999999999999178" y="245">2016</text><polyline fill="none" points="3.196328145774592e-13,580.0 60.62650869523932,576.8226993135985 120.58878067430071,567.3256084256071 179.2298567374698,551.6127794511889 235.90725298396438,529.8563654327083 290.0000000000002,502.29473419497424 340.9154463296346,469.2298567374693 388.0957516881379,431.0239987768884 431.02399877688873,388.0957516881375 469.2298567374695,340.91544632963416 502.29473419497435,289.9999999999998 529.8563654327083,235.9072529839639 551.6127794511889,179.2298567374693 567.325608425607,120.58878067430025 576.8226993135983,60.6265086952389 579.9999999999997,-6.394884621840902e-14 576.8226993135982,-60.62650869523902 567.3256084256069,-120.58878067430035 551.6127794511887,-179.2298567374694 529.8563654327081,-235.90725298396393 502.294734194974,-289.9999999999997 469.2298567374691,-340.91544632963405 431.0239987768883,-388.0957516881373 388.0957516881374,-431.0239987768881 340.9154463296341,-469.2298567374689 289.9999999999998,-502.2947341949737 235.90725298396396,-529.8563654327078 179.22985673746942,-551.6127794511882 120.58878067430041,-567.3256084256063 60.62650869523911,-576.8226993135976 2.1316282072803006e-13,-579.999999999999 -60.62650869523868,-576.8226993135975 -120.58878067429995,-567.3256084256062 -179.2298567374689,-551.612779451188 -235.9072529839634,-529.8563654327074 -289.99999999999915,-502.2947341949734 -340.9154463296334,-469.22985673746854 -388.09575168813666,-431.02399877688777 -431.0239987768874,-388.09575168813694 -469.22985673746814,-340.9154463296337 -502.29473419497293,-289.99999999999943 -529.856365432707,-235.90725298396367 -551.6127794511874,-179.2298567374692" stroke="#000" stroke-linecap="round" stroke-linejoin="round" stroke-width="15.0"/><polyline fill="none" points="-551.6127794511874,-179.2298567374692 -567.3256084256055,-120.58878067430025 -576.8226993135968,-60.62650869523901 -579.9999999999982,-1.7053025658242404e-13 -576.8226993135967,60.62650869523866 -567.3256084256054,120.58878067429988 -551.6127794511873,179.2298567374688 -529.8563654327068,235.90725298396322 -502.2947341949727,289.9999999999989 -469.22985673746786,340.91544632963314 -431.0239987768871,388.0957516881363 -388.0957516881363,431.023998776887 -340.9154463296331,469.22985673746774 -289.9999999999988,502.29473419497253 -235.9072529839631,529.8563654327065 -179.22985673746868,551.612779451187 -120.58878067429978,567.3256084256051 -60.62650869523859,576.8226993135963 1.9895196601282805e-13,579.9999999999977" stroke="#000" stroke-linecap="round" stroke-linejoin="round" stroke-width="15.0"/><line fill="none" stroke="none" stroke-linecap="round" stroke-width="2.0" x1="0.0" x2="0.0" y1="0.0" y2="0.0"/><polygon fill="none" fill-rule="evenodd" points="0.0,0.0 0.0,0.0 0.0,0.0" stroke-linejoin="round"/></svg>