<?xml version="1.0" ?><!DOCTYPE svg  PUBLIC '-//W3C//DTD SVG 1.1//EN'  'http://www.w3.org/Graphics/SVG/1.1/DTD/svg11.dtd'><svg height="1420.000" viewBox="-710.000 -710.000 1421.000 1420.000" width="1421.000" xmlns="http://www.w3.org/2000/svg"><line fill="none" stroke="none" stroke-linecap="round" stroke-width="2.0" x1="0.0" x2="0.0" y1="0.0" y2="0.0"/><text fill="#000" font-family="Liberation Sans" font-size="92.0pt" font-weight="bold" stroke-width="0.0" text-anchor="middle" x="-0.9999999999999952" y="52">Remaiten</text><text fill="#000" font-family="Liberation Sans" font-size="80.0pt" font-weight="bold" stroke-width="0.0" text-anchor="middle" x="-0.9999999999999147" y="255">2016</text><polyline fill="none" points="3.3616554636594846e-13,610.0 63.76236259326894,606.6583561746467 126.8261313988335,596.6700364476213 188.5003665687182,580.1444749400436 248.10935227623835,557.2627291619864 305.00000000000017,528.2754963085074 358.5490038984087,493.5003665687177 408.16966987890356,453.31834354121025 453.3183435412105,408.1696698789033 493.5003665687179,358.5490038984084 528.2754963085074,304.9999999999998 557.2627291619863,248.10935227623793 580.1444749400433,188.50036656871777 596.670036447621,126.82613139883307 606.6583561746462,63.76236259326855 609.9999999999994,-7.105427357601002e-15 606.6583561746461,-63.762362593268556 596.6700364476208,-126.82613139883307 580.144474940043,-188.5003665687177 557.2627291619858,-248.10935227623781 528.2754963085068,-304.9999999999996 493.5003665687172,-358.5490038984081 453.31834354120974,-408.16966987890294 408.1696698789028,-453.3183435412098 358.54900389840793,-493.50036656871714 304.9999999999994,-528.2754963085067 248.1093522762376,-557.2627291619856 188.50036656871748,-580.1444749400426 126.82613139883284,-596.6700364476203 63.76236259326838,-606.6583561746455 -1.1368683772161603e-13,-609.9999999999987 -63.7623625932686,-606.6583561746454 -126.82613139883304,-596.6700364476201 -188.50036656871762,-580.1444749400423 -248.10935227623767,-557.2627291619851 -304.9999999999994,-528.2754963085061 -358.5490038984078,-493.5003665687166 -408.1696698789026,-453.3183435412092 -453.3183435412094,-408.1696698789023 -493.5003665687167,-358.54900389840753 -528.2754963085063,-304.99999999999903 -557.2627291619851,-248.1093522762373 -580.1444749400422,-188.50036656871725" stroke="#000" stroke-linecap="round" stroke-linejoin="round" stroke-width="15.0"/><polyline fill="none" points="-580.1444749400422,-188.50036656871725 -596.6700364476199,-126.82613139883269 -606.6583561746451,-63.762362593268286 -609.9999999999983,1.4210854715202004e-13 -606.6583561746451,63.76236259326856 -596.6700364476197,126.82613139883294 -580.144474940042,188.50036656871748 -557.2627291619849,248.10935227623747 -528.275496308506,304.99999999999915 -493.50036656871646,358.5490038984076 -453.3183435412091,408.1696698789023 -408.16966987890225,453.3183435412091 -358.5490038984075,493.5003665687164 -304.99999999999903,528.2754963085059 -248.10935227623736,557.2627291619848 -188.50036656871737,580.1444749400418 -126.82613139883284,596.6700364476195 -63.76236259326849,606.6583561746447 -1.1368683772161603e-13,609.999999999998" stroke="#000" stroke-linecap="round" stroke-linejoin="round" stroke-width="15.0"/><polyline fill="none" points="3.0336698070050153e-13,684.9999999999975 59.70168378214594,682.3933681928431 118.94900170184718,674.59331081336" stroke="#f0f" stroke-linecap="round" stroke-linejoin="round" stroke-width="15.0"/><polyline fill="none" points="234.28379817808255,643.6894452383447 289.49350929237835,620.8208341201027 342.49999999999903,593.2274015923381" stroke="#f0f" stroke-linecap="round" stroke-linejoin="round" stroke-width="15.0"/><polyline fill="none" points="440.3095126352781,524.7404435364978 484.36814511278357,484.36814511278294 524.7404435364983,440.30951263527743" stroke="#f0f" stroke-linecap="round" stroke-linejoin="round" stroke-width="15.0"/><polyline fill="none" points="593.2274015923387,342.4999999999983 620.8208341201033,289.49350929237755 643.6894452383452,234.28379817808167" stroke="#f0f" stroke-linecap="round" stroke-linejoin="round" stroke-width="15.0"/><polyline fill="none" points="674.5933108133603,118.9490017018462 682.3933681928434,59.701683782144926 684.9999999999976,-7.531752999057062e-13" stroke="#f0f" stroke-linecap="round" stroke-linejoin="round" stroke-width="15.0"/><polyline fill="none" points="674.5933108133601,-118.94900170184772 661.6591910080093,-177.291045895227 643.6894452383448,-234.2837981780832" stroke="#f0f" stroke-linecap="round" stroke-linejoin="round" stroke-width="15.0"/><polyline fill="none" points="593.2274015923381,-342.49999999999983 561.1191503379571,-392.89985890046626 524.7404435364978,-440.30951263527896" stroke="#f0f" stroke-linecap="round" stroke-linejoin="round" stroke-width="15.0"/><polyline fill="none" points="440.30951263527743,-524.7404435364992 392.89985890046466,-561.1191503379586 342.4999999999982,-593.2274015923396" stroke="#f0f" stroke-linecap="round" stroke-linejoin="round" stroke-width="15.0"/><polyline fill="none" points="234.28379817808147,-643.6894452383461 177.29104589522524,-661.6591910080106 118.94900170184593,-674.5933108133612" stroke="#f0f" stroke-linecap="round" stroke-linejoin="round" stroke-width="15.0"/><polyline fill="none" points="-1.1084466677857563e-12,-684.9999999999985 -59.70168378214683,-682.3933681928442 -118.94900170184815,-674.593310813361" stroke="#f0f" stroke-linecap="round" stroke-linejoin="round" stroke-width="15.0"/><polyline fill="none" points="-234.28379817808369,-643.6894452383457 -289.4935092923796,-620.8208341201037 -342.50000000000034,-593.227401592339" stroke="#f0f" stroke-linecap="round" stroke-linejoin="round" stroke-width="15.0"/><polyline fill="none" points="-440.3095126352795,-524.7404435364986 -484.368145112785,-484.36814511278374 -524.7404435364998,-440.30951263527817" stroke="#f0f" stroke-linecap="round" stroke-linejoin="round" stroke-width="15.0"/><polyline fill="none" points="-593.2274015923401,-342.49999999999886 -620.8208341201048,-289.49350929237806 -643.6894452383467,-234.28379817808212" stroke="#f0f" stroke-linecap="round" stroke-linejoin="round" stroke-width="15.0"/><polyline fill="none" points="-674.5933108133619,-118.94900170184653 -682.3933681928451,-59.701683782145196 -684.9999999999993,5.471179065352771e-13" stroke="#f0f" stroke-linecap="round" stroke-linejoin="round" stroke-width="15.0"/><polyline fill="none" points="-674.5933108133618,118.94900170184762 -661.659191008011,177.29104589522694 -643.6894452383465,234.2837981780832" stroke="#f0f" stroke-linecap="round" stroke-linejoin="round" stroke-width="15.0"/><polyline fill="none" points="-593.2274015923397,342.49999999999994 -561.1191503379586,392.8998589004664 -524.7404435364991,440.3095126352792" stroke="#f0f" stroke-linecap="round" stroke-linejoin="round" stroke-width="15.0"/><polyline fill="none" points="-440.3095126352787,524.7404435364995 -392.89985890046586,561.1191503379588 -342.4999999999993,593.2274015923398" stroke="#f0f" stroke-linecap="round" stroke-linejoin="round" stroke-width="15.0"/><polyline fill="none" points="-234.28379817808258,643.6894452383465 -177.2910458952263,661.659191008011 -118.94900170184692,674.5933108133618" stroke="#f0f" stroke-linecap="round" stroke-linejoin="round" stroke-width="15.0"/><polyline fill="none" points="2.1316282072803006e-13,684.9999999999992 59.70168378214599,682.393368192845 118.94900170184735,674.5933108133618" stroke="#f0f" stroke-linecap="round" stroke-linejoin="round" stroke-width="15.0"/><line fill="none" stroke="none" stroke-linecap="round" stroke-width="2.0" x1="0.0" x2="0.0" y1="0.0" y2="0.0"/><polygon fill="none" fill-rule="evenodd" points="0.0,0.0 0.0,0.0 0.0,0.0" stroke-linejoin="round"/></svg>