<?xml version="1.0" ?><!DOCTYPE svg  PUBLIC '-//W3C//DTD SVG 1.1//EN'  'http://www.w3.org/Graphics/SVG/1.1/DTD/svg11.dtd'><svg height="2260.000" viewBox="-1130.000 -1130.000 2261.000 2260.000" width="2261.000" xmlns="http://www.w3.org/2000/svg"><line fill="none" stroke="none" stroke-linecap="round" stroke-width="2.0" x1="0.0" x2="0.0" y1="0.0" y2="0.0"/><text fill="#000" font-family="Liberation Sans" font-size="96.0pt" font-weight="bold" stroke-width="0.0" text-anchor="middle" x="-0.9999999999999934" y="80">VPNFilter</text><text fill="#000" font-family="Liberation Sans" font-size="80.0pt" font-weight="bold" stroke-width="0.0" text-anchor="middle" x="-0.9999999999999025" y="295">2018</text><polyline fill="none" points="4.0229647351990554e-13,730.0 76.30577818538742,726.0009836188394 151.77553429696468,714.047748535678 225.58240589371195,694.271256895462 296.91774944533444,666.8881840790984 365.0000000000002,632.1985447626399 429.08323417350556,590.5824058937113 488.4653426419666,542.4957225984974 542.4957225984978,488.4653426419661 590.5824058937116,429.083234173505 632.19854476264,364.9999999999996 666.8881840790984,296.91774944533375 694.2712568954619,225.58240589371127 714.0477485356778,151.775534296964 726.0009836188391,76.30577818538677 729.9999999999995,-1.9895196601282805e-13 726.0009836188391,-76.30577818538715 714.0477485356777,-151.77553429696437 694.2712568954616,-225.58240589371158 666.8881840790982,-296.91774944533404 632.1985447626398,-364.9999999999998 590.5824058937112,-429.08323417350505 542.4957225984974,-488.46534264196606 488.4653426419662,-542.4957225984972 429.0832341735051,-590.5824058937109 364.9999999999998,-632.1985447626394 296.917749445334,-666.8881840790978 225.58240589371155,-694.2712568954611 151.77553429696437,-714.047748535677 76.30577818538721,-726.0009836188383 3.268496584496461e-13,-729.9999999999987 -76.30577818538656,-726.0009836188383 -151.77553429696368,-714.0477485356769 -225.5824058937108,-694.2712568954609 -296.9177494453332,-666.8881840790974 -364.99999999999886,-632.198544762639 -429.0832341735041,-590.5824058937105 -488.46534264196504,-542.4957225984967 -542.4957225984962,-488.46534264196555 -590.5824058937098,-429.08323417350454 -632.1985447626383,-364.9999999999993 -666.8881840790966,-296.91774944533364 -694.2712568954599,-225.58240589371127" stroke="#000" stroke-linecap="round" stroke-linejoin="round" stroke-width="15.0"/><polyline fill="none" points="-694.2712568954599,-225.58240589371127 -714.0477485356759,-151.77553429696417 -726.0009836188372,-76.30577818538708 -729.9999999999976,-2.7000623958883807e-13 -726.0009836188372,76.30577818538653 -714.0477485356757,151.7755342969636 -694.2712568954597,225.58240589371067 -666.8881840790963,296.91774944533296 -632.1985447626379,364.9999999999986 -590.5824058937094,429.08323417350374 -542.4957225984957,488.46534264196464 -488.4653426419646,542.4957225984957 -429.0832341735036,590.5824058937094 -364.9999999999984,632.1985447626378 -296.9177494453328,666.888184079096 -225.58240589371047,694.2712568954594 -151.77553429696343,714.0477485356753 -76.30577818538642,726.0009836188366 3.410605131648481e-13,729.999999999997" stroke="#000" stroke-linecap="round" stroke-linejoin="round" stroke-width="15.0"/><polyline fill="none" points="3.565115612611733e-13,804.999999999997 84.14541293046108,800.590125771457 167.36891110829598,787.4088185907106 248.75868047183206,765.6004956175957 327.4229976760182,735.4040934022909 402.49999999999875,697.1504500464704 473.1671280954393,651.2586804718301 538.650138118879,598.2315845093 598.2315845093002,538.6501381188787 651.2586804718303,473.1671280954389 697.1504500464705,402.4999999999983 735.4040934022909,327.42299767601776 765.6004956175956,248.7586804718316 787.4088185907103,167.36891110829555 800.5901257714568,84.14541293046071 804.9999999999967,5.684341886080802e-14 800.5901257714568,-84.14541293046058 787.4088185907103,-167.36891110829538 765.6004956175955,-248.75868047183138 735.4040934022906,-327.4229976760175 697.1504500464702,-402.4999999999979 651.25868047183,-473.1671280954384 598.2315845092999,-538.650138118878 538.6501381188787,-598.2315845092992 473.167128095439,-651.2586804718292 402.4999999999985,-697.1504500464694 327.4229976760181,-735.4040934022897 248.758680471832,-765.6004956175944 167.36891110829603,-787.4088185907092 84.14541293046126,-800.5901257714556 6.821210263296962e-13,-804.9999999999956 -84.14541293045988,-800.5901257714556 -167.36891110829464,-787.4088185907092 -248.7586804718306,-765.6004956175943 -327.4229976760166,-735.4040934022896 -402.499999999997,-697.1504500464692 -473.1671280954374,-651.258680471829 -538.6501381188771,-598.2315845092991 -598.2315845092982,-538.650138118878 -651.2586804718281,-473.1671280954384 -697.1504500464683,-402.49999999999795 -735.4040934022887,-327.4229976760176 -765.6004956175934,-248.75868047183158" stroke="#a52a2a" stroke-linecap="round" stroke-linejoin="round" stroke-width="15.0"/><polyline fill="none" points="-765.6004956175934,-248.75868047183158 -787.4088185907082,-167.36891110829566 -800.5901257714546,-84.14541293046096 -804.9999999999945,-4.547473508864641e-13 -800.5901257714546,84.14541293046005 -787.4088185907082,167.36891110829472 -765.6004956175934,248.7586804718306 -735.4040934022887,327.42299767601656 -697.1504500464683,402.4999999999969 -651.2586804718283,473.16712809543725 -598.2315845092983,538.6501381188768 -538.6501381188772,598.2315845092979 -473.16712809543765,651.2586804718279 -402.49999999999727,697.150450046468 -327.42299767601696,735.4040934022884 -248.75868047183104,765.6004956175931 -167.3689111082952,787.4088185907078 -84.1454129304606,800.5901257714543 -1.7053025658242404e-13,804.9999999999942" stroke="#a52a2a" stroke-linecap="round" stroke-linejoin="round" stroke-width="15.0"/><polyline fill="none" points="1.0884049888142841e-13,879.9999999999935 91.98504767553447,875.1792679240741 182.96228791962693,860.7698886457426 271.9349550499518,836.929734339729 357.9282459067016,803.9200027254828 439.99999999999676,762.1023553303004 517.2510220173725,711.9349550499485 588.8349335957909,653.9674464201021 653.9674464201021,588.8349335957909 711.9349550499484,517.2510220173725 762.1023553303003,439.99999999999676 803.9200027254827,357.9282459067016 836.9297343397288,271.93495504995184 860.7698886457424,182.96228791962704 875.1792679240739,91.98504767553462 879.9999999999933,3.126388037344441e-13 875.1792679240739,-91.98504767553398 860.7698886457424,-182.96228791962636 836.9297343397287,-271.9349550499511 803.9200027254826,-357.9282459067008 762.1023553303002,-439.9999999999959 711.9349550499483,-517.2510220173716 653.967446420102,-588.8349335957898 588.8349335957909,-653.9674464201009 517.2510220173726,-711.9349550499472 439.99999999999693,-762.1023553302991 357.9282459067018,-803.9200027254816 271.9349550499521,-836.9297343397277 182.96228791962739,-860.7698886457413 91.98504767553504,-875.1792679240727 8.242295734817162e-13,-879.9999999999922 -91.9850476755334,-875.1792679240727 -182.96228791962574,-860.7698886457413 -271.9349550499504,-836.9297343397277 -357.92824590670006,-803.9200027254817 -439.9999999999951,-762.1023553302994 -517.2510220173707,-711.9349550499476 -588.8349335957889,-653.9674464201013 -653.9674464201,-588.8349335957902 -711.9349550499463,-517.251022017372 -762.1023553302981,-439.99999999999636 -803.9200027254805,-357.92824590670136 -836.9297343397265,-271.9349550499518" stroke="#dc143c" stroke-linecap="round" stroke-linejoin="round" stroke-width="15.0"/><polyline fill="none" points="-836.9297343397265,-271.9349550499518 -860.76988864574,-182.96228791962716 -875.1792679240715,-91.9850476755349 -879.9999999999909,-7.673861546209082e-13 -875.1792679240715,91.98504767553337 -860.76988864574,182.96228791962562 -836.9297343397265,271.93495504995025 -803.9200027254805,357.92824590669983 -762.1023553302981,439.9999999999948 -711.9349550499463,517.2510220173704 -653.9674464201001,588.8349335957885 -588.8349335957892,653.9674464200995 -517.251022017371,711.9349550499456 -439.9999999999955,762.1023553302974 -357.92824590670057,803.9200027254798 -271.93495504995104,836.9297343397258 -182.96228791962648,860.7698886457393 -91.98504767553429,875.1792679240708 -2.1316282072803006e-13,879.9999999999902" stroke="#dc143c" stroke-linecap="round" stroke-linejoin="round" stroke-width="15.0"/><polyline fill="none" points="-1.734556440788136e-13,954.9999999999899 99.82468242060783,949.768410076691 198.55566473095786,934.1309587007745 295.11122962807144,908.2589730618621 388.43349413738486,872.4359120486747 477.4999999999947,827.0542606141303 561.3349159393057,772.6112296280668 639.0197290727026,709.7033083309042 709.7033083309037,639.0197290727031 772.6112296280663,561.3349159393061 827.0542606141298,477.4999999999952 872.4359120486743,388.4334941373854 908.2589730618616,295.11122962807207 934.130958700774,198.55566473095854 949.7684100766905,99.82468242060855 954.9999999999894,6.110667527536862e-13 949.7684100766905,-99.82468242060733 934.130958700774,-198.55566473095732 908.2589730618616,-295.1112296280709 872.4359120486743,-388.43349413738423 827.0542606141298,-477.49999999999403 772.6112296280663,-561.3349159393049 709.7033083309037,-639.0197290727018 639.0197290727026,-709.7033083309029 561.3349159393058,-772.6112296280655 477.49999999999494,-827.054260614129 388.4334941373852,-872.4359120486735 295.1112296280719,-908.2589730618608 198.5556647309584,-934.1309587007732 99.82468242060844,-949.7684100766897 5.258016244624741e-13,-954.9999999999886 -99.82468242060739,-949.7684100766897 -198.55566473095735,-934.1309587007734 -295.1112296280709,-908.258973061861 -388.4334941373842,-872.4359120486736 -477.499999999994,-827.0542606141291 -561.3349159393049,-772.6112296280656 -639.0197290727018,-709.7033083309032 -709.7033083309029,-639.0197290727021 -772.6112296280655,-561.3349159393053 -827.054260614129,-477.49999999999454 -872.4359120486735,-388.43349413738486 -908.2589730618608,-295.11122962807156" stroke="#ffa500" stroke-linecap="round" stroke-linejoin="round" stroke-width="15.0"/><polyline fill="none" points="-908.2589730618608,-295.11122962807156 -934.1309587007732,-198.55566473095809 -949.7684100766897,-99.82468242060817 -954.9999999999886,-2.984279490192421e-13 -949.7684100766897,99.82468242060757 -934.1309587007734,198.5556647309575 -908.258973061861,295.111229628071 -872.4359120486736,388.4334941373843 -827.0542606141292,477.49999999999403 -772.6112296280659,561.3349159393049 -709.7033083309034,639.0197290727017 -639.0197290727024,709.7033083309027 -561.3349159393056,772.6112296280653 -477.49999999999477,827.0542606141288 -388.4334941373851,872.4359120486732 -295.11122962807184,908.2589730618606 -198.55566473095843,934.130958700773 -99.82468242060855,949.7684100766895 -7.389644451905042e-13,954.9999999999885" stroke="#ffa500" stroke-linecap="round" stroke-linejoin="round" stroke-width="15.0"/><polyline fill="none" points="-4.872543653627944e-13,1029.9999999999873 107.66431716568124,1024.3575522293088 214.14904154228896,1007.4920287558073 318.2875042061914,979.588211783996 418.93874236806846,940.9518213718673 514.9999999999931,892.0061658979608 605.4188098612393,833.2875042061856 689.2045245496149,765.4391702417067 765.439170241706,689.2045245496156 833.287504206185,605.4188098612401 892.0061658979602,514.999999999994 940.9518213718667,418.9387423680694 979.5882117839955,318.28750420619235 1007.4920287558068,214.14904154228998 1024.3575522293083,107.66431716568233 1029.9999999999868,6.679101716144942e-13 1024.3575522293086,-107.664317165681 1007.4920287558072,-214.14904154228864 979.5882117839959,-318.287504206191 940.9518213718673,-418.938742368068 892.0061658979608,-514.9999999999925 833.2875042061858,-605.4188098612386 765.439170241707,-689.2045245496142 689.2045245496159,-765.4391702417054 605.4188098612404,-833.2875042061843 514.9999999999944,-892.0061658979595 418.93874236806994,-940.951821371866 318.287504206193,-979.5882117839948 214.1490415422907,-1007.4920287558061 107.6643171656831,-1024.3575522293077 1.4921397450962104e-12,-1029.9999999999861 -107.66431716568012,-1024.3575522293079 -214.1490415422877,-1007.4920287558065 -318.28750420619,-979.5882117839953 -418.93874236806704,-940.9518213718667 -514.9999999999915,-892.0061658979603 -605.4188098612376,-833.2875042061852 -689.2045245496131,-765.4391702417064 -765.4391702417042,-689.2045245496154 -833.2875042061831,-605.41880986124 -892.0061658979583,-514.999999999994 -940.9518213718649,-418.9387423680696 -979.5882117839936,-318.2875042061927" stroke="#7fffd4" stroke-linecap="round" stroke-linejoin="round" stroke-width="15.0"/><polyline fill="none" points="-979.5882117839936,-318.2875042061927 -1007.492028755805,-214.14904154229046 -1024.3575522293065,-107.66431716568295 -1029.999999999985,-1.4068746168049984e-12 -1024.3575522293067,107.66431716568013 -1007.4920287558053,214.14904154228765 -979.5882117839942,318.28750420618985 -940.9518213718655,418.93874236806676 -892.0061658979592,514.9999999999911 -833.2875042061842,605.4188098612372 -765.4391702417055,689.2045245496126 -689.2045245496146,765.4391702417037 -605.4188098612392,833.2875042061826 -514.9999999999933,892.0061658979578 -418.938742368069,940.9518213718643 -318.2875042061921,979.5882117839931 -214.14904154228998,1007.4920287558044 -107.66431716568255,1024.357552229306 -1.0942358130705543e-12,1029.9999999999845" stroke="#7fffd4" stroke-linecap="round" stroke-linejoin="round" stroke-width="15.0"/><polyline fill="none" points="-9.214428958795656e-13,1104.9999999999834 96.30709573615991,1100.7951413913624 191.88123632195425,1088.2125670784737" stroke="#deb887" stroke-linecap="round" stroke-linejoin="round" stroke-width="15.0"/><polyline fill="none" points="377.9322583748574,1038.3603459684136 466.993179223465,1001.4701046754836 552.4999999999909,956.9580711817908" stroke="#deb887" stroke-linecap="round" stroke-linejoin="round" stroke-width="15.0"/><polyline fill="none" points="710.2803087036147,846.4791096464587 781.3529932111227,781.352993211124 846.4791096464575,710.2803087036161" stroke="#deb887" stroke-linecap="round" stroke-linejoin="round" stroke-width="15.0"/><polyline fill="none" points="956.95807118179,552.4999999999926 1001.470104675483,466.99317922346677 1038.360345968413,377.9322583748592" stroke="#deb887" stroke-linecap="round" stroke-linejoin="round" stroke-width="15.0"/><polyline fill="none" points="1088.2125670784735,191.88123632195607 1100.7951413913624,96.30709573616171 1104.9999999999836,8.242295734817162e-13" stroke="#deb887" stroke-linecap="round" stroke-linejoin="round" stroke-width="15.0"/><polyline fill="none" points="1088.212567078474,-191.88123632195447 1067.348038049405,-285.9950448382806 1038.3603459684139,-377.93225837485784" stroke="#deb887" stroke-linecap="round" stroke-linejoin="round" stroke-width="15.0"/><polyline fill="none" points="956.9580711817912,-552.4999999999916 905.1630089393233,-633.8019621678965 846.4791096464589,-710.2803087036154" stroke="#deb887" stroke-linecap="round" stroke-linejoin="round" stroke-width="15.0"/><polyline fill="none" points="710.2803087036161,-846.4791096464585 633.8019621678973,-905.1630089393229 552.4999999999925,-956.9580711817911" stroke="#deb887" stroke-linecap="round" stroke-linejoin="round" stroke-width="15.0"/><polyline fill="none" points="377.932258374859,-1038.3603459684143 285.99504483828173,-1067.3480380494057 191.8812363219556,-1088.2125670784749" stroke="#deb887" stroke-linecap="round" stroke-linejoin="round" stroke-width="15.0"/><polyline fill="none" points="1.7053025658242404e-13,-1104.999999999985 -96.30709573616083,-1100.795141391364 -191.88123632195533,-1088.2125670784753" stroke="#deb887" stroke-linecap="round" stroke-linejoin="round" stroke-width="15.0"/><polyline fill="none" points="-377.93225837485886,-1038.3603459684152 -466.99317922346665,-1001.4701046754852 -552.4999999999927,-956.9580711817924" stroke="#deb887" stroke-linecap="round" stroke-linejoin="round" stroke-width="15.0"/><polyline fill="none" points="-710.2803087036168,-846.4791096464601 -781.3529932111251,-781.3529932111253 -846.4791096464601,-710.2803087036173" stroke="#deb887" stroke-linecap="round" stroke-linejoin="round" stroke-width="15.0"/><polyline fill="none" points="-956.9580711817929,-552.4999999999934 -1001.4701046754859,-466.99317922346745 -1038.3603459684161,-377.93225837485966" stroke="#deb887" stroke-linecap="round" stroke-linejoin="round" stroke-width="15.0"/><polyline fill="none" points="-1088.212567078477,-191.88123632195615 -1100.7951413913659,-96.3070957361616 -1104.999999999987,-5.115907697472721e-13" stroke="#deb887" stroke-linecap="round" stroke-linejoin="round" stroke-width="15.0"/><polyline fill="none" points="-1088.2125670784774,191.8812363219552 -1067.3480380494084,285.9950448382815 -1038.3603459684173,377.932258374859" stroke="#deb887" stroke-linecap="round" stroke-linejoin="round" stroke-width="15.0"/><polyline fill="none" points="-956.9580711817944,552.4999999999931 -905.1630089393263,633.8019621678982 -846.4791096464619,710.2803087036174" stroke="#deb887" stroke-linecap="round" stroke-linejoin="round" stroke-width="15.0"/><polyline fill="none" points="-710.2803087036189,846.4791096464609 -633.8019621678998,905.1630089393256 -552.4999999999949,956.9580711817939" stroke="#deb887" stroke-linecap="round" stroke-linejoin="round" stroke-width="15.0"/><polyline fill="none" points="-377.93225837486096,1038.3603459684173 -285.99504483828355,1067.3480380494088 -191.88123632195726,1088.2125670784783" stroke="#deb887" stroke-linecap="round" stroke-linejoin="round" stroke-width="15.0"/><polyline fill="none" points="-1.3500311979441904e-12,1104.9999999999886 96.30709573615991,1100.7951413913677 191.88123632195467,1088.212567078479" stroke="#deb887" stroke-linecap="round" stroke-linejoin="round" stroke-width="15.0"/><line fill="none" stroke="none" stroke-linecap="round" stroke-width="2.0" x1="0.0" x2="0.0" y1="0.0" y2="0.0"/><polygon fill="none" fill-rule="evenodd" points="0.0,0.0 0.0,0.0 0.0,0.0" stroke-linejoin="round"/></svg>