<?xml version="1.0" ?><!DOCTYPE svg  PUBLIC '-//W3C//DTD SVG 1.1//EN'  'http://www.w3.org/Graphics/SVG/1.1/DTD/svg11.dtd'><svg height="1181.000" viewBox="-590.000 -590.000 1181.000 1181.000" width="1181.000" xmlns="http://www.w3.org/2000/svg"><line fill="none" stroke="none" stroke-linecap="round" stroke-width="2.0" x1="0.0" x2="0.0" y1="0.0" y2="0.0"/><text fill="#000" font-family="Liberation Sans" font-size="88.0pt" font-weight="bold" stroke-width="0.0" text-anchor="middle" x="-0.9999999999999971" y="23">Carna</text><text fill="#000" font-family="Liberation Sans" font-size="80.0pt" font-weight="bold" stroke-width="0.0" text-anchor="middle" x="-0.9999999999999271" y="215">2012</text><polyline fill="none" points="2.700346192119914e-13,490.0 51.21894700115046,487.3157287304539 101.87672850070231,479.2923243595647 151.41832724372446,466.01769298462517 199.3009551071423,447.63727424487433 245.00000000000017,424.3524478543748 288.01477362331195,396.4183272437241 327.8739971158406,364.140964483923 364.1409644839232,327.8739971158404 396.4183272437242,288.01477362331167 424.3524478543749,244.99999999999983 447.63727424487433,199.30095510714193 466.0176929846251,151.4183272437241 479.2923243595646,101.87672850070197 487.3157287304537,51.21894700115014 489.9999999999997,-7.105427357601002e-15 487.3157287304536,-51.218947001150156 479.2923243595644,-101.87672850070197 466.0176929846249,-151.41832724372406 447.63727424487405,-199.30095510714187 424.35244785437453,-244.99999999999972 396.41832724372387,-288.0147736233115 364.1409644839228,-327.8739971158401 327.87399711584015,-364.1409644839227 288.0147736233115,-396.4183272437237 244.99999999999972,-424.3524478543743 199.30095510714187,-447.63727424487377 151.4183272437241,-466.0176929846245 101.876728500702,-479.29232435956396 51.21894700115022,-487.3157287304531 1.2079226507921703e-13,-489.9999999999991 -51.21894700114997,-487.315728730453 -101.87672850070174,-479.2923243595638 -151.4183272437238,-466.01769298462426 -199.30095510714156,-447.6372742448735 -244.99999999999935,-424.352447854374 -288.01477362331104,-396.41832724372335 -327.87399711583964,-364.14096448392235 -364.1409644839222,-327.87399711583976 -396.4183272437231,-288.01477362331116 -424.35244785437374,-244.99999999999943 -447.63727424487314,-199.30095510714165 -466.01769298462386,-151.4183272437239" stroke="#000" stroke-linecap="round" stroke-linejoin="round" stroke-width="15.0"/><polyline fill="none" points="-466.01769298462386,-151.4183272437239 -479.29232435956334,-101.87672850070186 -487.31572873045246,-51.21894700115013 -489.9999999999985,-7.815970093361102e-14 -487.31572873045246,51.218947001149964 -479.2923243595633,101.87672850070169 -466.0176929846238,151.4183272437237 -447.637274244873,199.3009551071414 -424.35244785437357,244.99999999999915 -396.41832724372296,288.0147736233108 -364.140964483922,327.87399711583936 -327.8739971158395,364.1409644839219 -288.01477362331093,396.41832724372284 -244.99999999999923,424.3524478543734 -199.30095510714148,447.6372742448728 -151.41832724372378,466.0176929846235 -101.87672850070179,479.29232435956294 -51.2189470011501,487.31572873045207 -9.237055564881302e-14,489.9999999999981" stroke="#000" stroke-linecap="round" stroke-linejoin="round" stroke-width="15.0"/><polyline fill="none" points="2.502224001398297e-13,564.999999999998 59.058581746224235,561.9048708830724 117.47010531203382,552.6533944145981 174.59460182184486,537.3469317067597 229.80620333782645,516.1531835680676 282.4999999999991,489.30435313820595 332.0986675452462,457.0946018218435 378.05879259275355,419.8768263947261 419.8768263947262,378.0587925927534 457.0946018218436,332.098667545246 489.30435313820595,282.49999999999886 516.1531835680674,229.8062033378262 537.3469317067596,174.5946018218446 552.653394414598,117.47010531203358 561.9048708830721,59.05858174622403 564.9999999999976,8.526512829121202e-14 561.904870883072,-59.05858174622385 552.6533944145978,-117.47010531203338 537.3469317067594,-174.59460182184438 516.1531835680672,-229.80620333782593 489.30435313820567,-282.4999999999985 457.09460182184324,-332.0986675452456 419.87682639472587,-378.0587925927529 378.0587925927532,-419.8768263947255 332.09866754524586,-457.09460182184284 282.4999999999988,-489.3043531382052 229.8062033378262,-516.1531835680668 174.59460182184466,-537.3469317067589 117.4701053120337,-552.6533944145973 59.05858174622419,-561.9048708830715 3.055333763768431e-13,-564.9999999999969 -59.058581746223574,-561.9048708830713 -117.47010531203306,-552.6533944145971 -174.59460182184398,-537.3469317067587 -229.80620333782548,-516.1531835680665 -282.49999999999807,-489.304353138205 -332.0986675452451,-457.0946018218426 -378.0587925927524,-419.8768263947253 -419.876826394725,-378.0587925927527 -457.09460182184233,-332.0986675452454 -489.30435313820465,-282.4999999999984 -516.1531835680662,-229.80620333782585 -537.3469317067584,-174.59460182184438" stroke="#f0f" stroke-linecap="round" stroke-linejoin="round" stroke-width="15.0"/><polyline fill="none" points="-537.3469317067584,-174.59460182184438 -552.6533944145967,-117.47010531203347 -561.9048708830709,-59.058581746224014 -564.9999999999965,-1.7763568394002505e-13 -561.9048708830709,59.05858174622366 -552.6533944145967,117.4701053120331 -537.3469317067584,174.59460182184398 -516.1531835680662,229.80620333782542 -489.3043531382047,282.49999999999795 -457.0946018218424,332.09866754524495 -419.8768263947251,378.0587925927522 -378.0587925927525,419.87682639472473 -332.0986675452453,457.09460182184205 -282.4999999999983,489.30435313820436 -229.8062033378258,516.1531835680659 -174.59460182184438,537.3469317067579 -117.47010531203351,552.6533944145962 -59.05858174622412,561.9048708830703 -3.410605131648481e-13,564.9999999999959" stroke="#f0f" stroke-linecap="round" stroke-linejoin="round" stroke-width="15.0"/><line fill="none" stroke="none" stroke-linecap="round" stroke-width="2.0" x1="0.0" x2="0.0" y1="0.0" y2="0.0"/><polygon fill="none" fill-rule="evenodd" points="0.0,0.0 0.0,0.0 0.0,0.0" stroke-linejoin="round"/></svg>