<?xml version="1.0" ?><!DOCTYPE svg  PUBLIC '-//W3C//DTD SVG 1.1//EN'  'http://www.w3.org/Graphics/SVG/1.1/DTD/svg11.dtd'><svg height="1481.000" viewBox="-740.000 -740.000 1481.000 1481.000" width="1481.000" xmlns="http://www.w3.org/2000/svg"><line fill="none" stroke="none" stroke-linecap="round" stroke-width="2.0" x1="0.0" x2="0.0" y1="0.0" y2="0.0"/><text fill="#000" font-family="Liberation Sans" font-size="93.0pt" font-weight="bold" stroke-width="0.0" text-anchor="middle" x="-0.9999999999999948" y="58">HideNSeek</text><text fill="#000" font-family="Liberation Sans" font-size="80.0pt" font-weight="bold" stroke-width="0.0" text-anchor="middle" x="-0.9999999999999117" y="265">2018</text><polyline fill="none" points="3.5269827815443773e-13,640.0 66.89821649129857,636.4940130356949 133.0634821233663,626.0144644696355 197.77087639996665,608.6761704288982 260.3114515685124,584.6690928912644 320.0000000000002,554.2562584220406 376.18256146718295,517.7708763999661 428.24358806966933,475.61268830553206 475.6126883055323,428.243588069669 517.7708763999663,376.18256146718255 554.2562584220406,319.9999999999998 584.6690928912643,260.3114515685119 608.676170428898,197.77087639996617 626.0144644696353,133.06348212336584 636.4940130356946,66.89821649129814 639.9999999999997,-1.4210854715202004e-14 636.4940130356946,-66.89821649129817 626.0144644696352,-133.06348212336587 608.6761704288979,-197.77087639996617 584.6690928912642,-260.31145156851187 554.2562584220403,-319.99999999999966 517.7708763999659,-376.1825614671824 475.6126883055319,-428.2435880696687 428.2435880696689,-475.61268830553166 376.18256146718244,-517.7708763999656 319.9999999999997,-554.2562584220399 260.3114515685119,-584.6690928912636 197.77087639996623,-608.6761704288973 133.06348212336596,-626.0144644696345 66.89821649129831,-636.4940130356938 2.2737367544323206e-13,-639.9999999999989 -66.89821649129786,-636.4940130356938 -133.06348212336547,-626.0144644696345 -197.7708763999657,-608.6761704288972 -260.3114515685113,-584.6690928912635 -319.99999999999903,-554.2562584220398 -376.1825614671817,-517.7708763999655 -428.243588069668,-475.6126883055315 -475.6126883055309,-428.24358806966853 -517.7708763999648,-376.1825614671822 -554.2562584220391,-319.99999999999955 -584.6690928912628,-260.3114515685118 -608.6761704288964,-197.7708763999662" stroke="#000" stroke-linecap="round" stroke-linejoin="round" stroke-width="15.0"/><polyline fill="none" points="-608.6761704288964,-197.7708763999662 -626.0144644696336,-133.063482123366 -636.4940130356929,-66.89821649129841 -639.999999999998,-3.836930773104541e-13 -636.4940130356929,66.89821649129763 -626.0144644696336,133.0634821233652 -608.6761704288963,197.77087639996535 -584.6690928912626,260.3114515685109 -554.2562584220389,319.9999999999986 -517.7708763999645,376.1825614671812 -475.61268830553064,428.24358806966745 -428.24358806966774,475.61268830553036 -376.1825614671814,517.7708763999642 -319.9999999999988,554.2562584220384 -260.31145156851113,584.6690928912622 -197.77087639996557,608.6761704288957 -133.06348212336542,626.0144644696329 -66.8982164912979,636.4940130356922 7.105427357601002e-14,639.9999999999973" stroke="#000" stroke-linecap="round" stroke-linejoin="round" stroke-width="15.0"/><polyline fill="none" points="3.1665312584066946e-13,714.9999999999974 74.73785123637226,711.0831551883128 148.65685893469768,699.3755345246684 220.94715097808688,680.0054091510322 290.81669979919633,653.1850022144571 357.49999999999886,619.2081637058711 420.2664553891169,578.447150978085 478.428383546582,531.3485502163346 531.348550216335,478.42838354658153 578.4471509780852,420.2664553891164 619.2081637058712,357.49999999999835 653.1850022144571,290.81669979919576 680.005409151032,220.9471509780863 699.3755345246682,148.65685893469714 711.0831551883125,74.73785123637177 714.999999999997,-1.2789769243681803e-13 711.0831551883125,-74.73785123637201 699.3755345246681,-148.65685893469737 680.0054091510319,-220.94715097808648 653.1850022144569,-290.8166997991959 619.208163705871,-357.4999999999984 578.447150978085,-420.26645538911635 531.3485502163347,-478.42838354658136 478.4283835465817,-531.3485502163343 420.26645538911663,-578.4471509780846 357.49999999999864,-619.2081637058706 290.81669979919616,-653.1850022144564 220.94715097808677,-680.0054091510314 148.65685893469765,-699.3755345246675 74.73785123637235,-711.0831551883118 5.258016244624741e-13,-714.9999999999964 -74.73785123637128,-711.0831551883118 -148.65685893469657,-699.3755345246675 -220.94715097808563,-680.0054091510314 -290.81669979919496,-653.1850022144563 -357.49999999999744,-619.2081637058704 -420.2664553891154,-578.4471509780844 -478.42838354658033,-531.3485502163342 -531.3485502163333,-478.42838354658124 -578.4471509780835,-420.26645538911623 -619.2081637058695,-357.4999999999983 -653.1850022144554,-290.8166997991958 -680.0054091510303,-220.9471509780865" stroke="#dc143c" stroke-linecap="round" stroke-linejoin="round" stroke-width="15.0"/><polyline fill="none" points="-680.0054091510303,-220.9471509780865 -699.3755345246665,-148.65685893469748 -711.0831551883108,-74.73785123637225 -714.9999999999953,-4.973799150320701e-13 -711.0831551883108,74.73785123637126 -699.3755345246665,148.65685893469646 -680.0054091510303,220.94715097808546 -653.1850022144554,290.81669979919474 -619.2081637058695,357.49999999999716 -578.4471509780835,420.26645538911504 -531.3485502163334,478.42838354658 -478.42838354658045,531.3485502163329 -420.2664553891155,578.4471509780831 -357.49999999999767,619.208163705869 -290.8166997991953,653.1850022144547 -220.94715097808606,680.0054091510297 -148.65685893469708,699.3755345246657 -74.73785123637192,711.08315518831 -2.4158453015843406e-13,714.9999999999945" stroke="#dc143c" stroke-linecap="round" stroke-linejoin="round" stroke-width="15.0"/><line fill="none" stroke="none" stroke-linecap="round" stroke-width="2.0" x1="0.0" x2="0.0" y1="0.0" y2="0.0"/><polygon fill="none" fill-rule="evenodd" points="0.0,0.0 0.0,0.0 0.0,0.0" stroke-linejoin="round"/></svg>