<?xml version="1.0" ?><!DOCTYPE svg  PUBLIC '-//W3C//DTD SVG 1.1//EN'  'http://www.w3.org/Graphics/SVG/1.1/DTD/svg11.dtd'><svg height="1541.000" viewBox="-770.000 -770.000 1541.000 1541.000" width="1541.000" xmlns="http://www.w3.org/2000/svg"><line fill="none" stroke="none" stroke-linecap="round" stroke-width="2.0" x1="0.0" x2="0.0" y1="0.0" y2="0.0"/><text fill="#000" font-family="Liberation Sans" font-size="94.0pt" font-weight="bold" stroke-width="0.0" text-anchor="middle" x="-0.9999999999999943" y="66">Mirai</text><text fill="#000" font-family="Liberation Sans" font-size="80.0pt" font-weight="bold" stroke-width="0.0" text-anchor="middle" x="-0.9999999999999086" y="275">2016</text><polyline fill="none" points="3.69231009942927e-13,670.0 70.03407038932819,666.3296698967431 139.3008328478991,655.3588924916497 207.04138623121509,637.2078659177528 272.5135508607864,612.0754566205425 335.00000000000017,580.2370205355737 393.8161190359571,542.0413862312146 448.31750626043504,497.9070330698539 497.9070330698541,448.31750626043475 542.0413862312147,393.8161190359567 580.2370205355737,334.9999999999997 612.0754566205424,272.51355086078587 637.2078659177525,207.04138623121452 655.3588924916494,139.30083284789856 666.3296698967426,70.0340703893277 669.9999999999994,-7.105427357601002e-14 666.3296698967425,-70.03407038932782 655.3588924916492,-139.30083284789868 637.2078659177522,-207.04138623121463 612.0754566205419,-272.5135508607859 580.2370205355732,-334.99999999999966 542.041386231214,-393.81611903595655 497.90703306985336,-448.31750626043447 448.31750626043424,-497.9070330698535 393.81611903595626,-542.0413862312141 334.9999999999993,-580.2370205355732 272.51355086078553,-612.0754566205418 207.04138623121426,-637.207865917752 139.30083284789833,-655.3588924916488 70.03407038932752,-666.3296698967421 -1.7053025658242404e-13,-669.9999999999989 -70.03407038932785,-666.329669896742 -139.30083284789862,-655.3588924916486 -207.0413862312145,-637.2078659177517 -272.5135508607857,-612.0754566205414 -334.99999999999943,-580.2370205355728 -393.81611903595626,-542.0413862312138 -448.31750626043413,-497.90703306985324 -497.9070330698531,-448.3175062604342 -542.0413862312137,-393.81611903595626 -580.2370205355727,-334.9999999999994 -612.0754566205413,-272.51355086078564 -637.2078659177515,-207.04138623121446" stroke="#000" stroke-linecap="round" stroke-linejoin="round" stroke-width="15.0"/><polyline fill="none" points="-637.2078659177515,-207.04138623121446 -655.3588924916484,-139.30083284789862 -666.3296698967416,-70.03407038932788 -669.9999999999984,-2.5579538487363607e-13 -666.3296698967415,70.03407038932735 -655.3588924916481,139.30083284789805 -637.2078659177513,207.04138623121383 -612.075456620541,272.513550860785 -580.2370205355724,334.99999999999864 -542.0413862312133,393.8161190359554 -497.9070330698528,448.3175062604332 -448.3175062604338,497.90703306985216 -393.8161190359559,542.0413862312126 -334.9999999999991,580.2370205355716 -272.5135508607854,612.0754566205401 -207.04138623121426,637.2078659177503 -139.30083284789848,655.3588924916471 -70.0340703893278,666.3296698967404 -2.2737367544323206e-13,669.9999999999972" stroke="#000" stroke-linecap="round" stroke-linejoin="round" stroke-width="15.0"/><polyline fill="none" points="3.2993927098083744e-13,744.9999999999973 77.87370513440187,740.9188120493609 154.89420965923046,728.7199625466825 230.21766080933529,708.5371046398867 303.0187990914703,680.591365943735 372.49999999999886,645.1889258194042 437.9000129578911,602.7176608093333 498.5023017373477,553.6428949806564 553.6428949806568,498.50230173734724 602.7176608093337,437.90001295789057 645.1889258194044,372.49999999999835 680.5913659437351,303.01879909146976 708.5371046398867,230.21766080933475 728.7199625466824,154.89420965922994 740.9188120493607,77.8737051344014 744.9999999999969,-8.526512829121202e-14 740.9188120493606,-77.87370513440156 728.7199625466822,-154.89420965923006 708.5371046398864,-230.2176608093348 680.5913659437347,-303.01879909146976 645.188925819404,-372.49999999999824 602.7176608093332,-437.9000129578904 553.6428949806563,-498.50230173734695 498.5023017373472,-553.642894980656 437.90001295789057,-602.7176608093329 372.4999999999984,-645.1889258194036 303.01879909146993,-680.5913659437342 230.21766080933497,-708.5371046398858 154.89420965923023,-728.7199625466815 77.87370513440176,-740.9188120493599 3.410605131648481e-13,-744.9999999999961 -77.87370513440106,-740.9188120493598 -154.8942096592295,-728.7199625466814 -230.21766080933418,-708.5371046398857 -303.0187990914691,-680.5913659437341 -372.4999999999975,-645.1889258194034 -437.9000129578896,-602.7176608093326 -498.5023017373461,-553.6428949806558 -553.6428949806551,-498.5023017373468 -602.717660809332,-437.9000129578902 -645.1889258194027,-372.4999999999981 -680.5913659437333,-303.0187990914697 -708.5371046398849,-230.21766080933483" stroke="#ff0" stroke-linecap="round" stroke-linejoin="round" stroke-width="15.0"/><polyline fill="none" points="-708.5371046398849,-230.21766080933483 -728.7199625466806,-154.89420965923017 -740.918812049359,-77.87370513440177 -744.9999999999953,-4.263256414560601e-13 -740.918812049359,77.87370513440092 -728.7199625466806,154.89420965922932 -708.5371046398849,230.21766080933395 -680.5913659437333,303.0187990914688 -645.1889258194027,372.49999999999716 -602.7176608093321,437.9000129578892 -553.6428949806552,498.5023017373457 -498.5023017373463,553.6428949806547 -437.90001295788977,602.7176608093314 -372.4999999999977,645.188925819402 -303.01879909146936,680.5913659437326 -230.21766080933455,708.5371046398842 -154.89420965922994,728.7199625466799 -77.87370513440163,740.9188120493582 -3.694822225952521e-13,744.9999999999945" stroke="#ff0" stroke-linecap="round" stroke-linejoin="round" stroke-width="15.0"/><line fill="none" stroke="none" stroke-linecap="round" stroke-width="2.0" x1="0.0" x2="0.0" y1="0.0" y2="0.0"/><polygon fill="none" fill-rule="evenodd" points="0.0,0.0 0.0,0.0 0.0,0.0" stroke-linejoin="round"/></svg>