<?xml version="1.0" ?><!DOCTYPE svg  PUBLIC '-//W3C//DTD SVG 1.1//EN'  'http://www.w3.org/Graphics/SVG/1.1/DTD/svg11.dtd'><svg height="1301.000" viewBox="-650.000 -650.000 1301.000 1301.000" width="1301.000" xmlns="http://www.w3.org/2000/svg"><line fill="none" stroke="none" stroke-linecap="round" stroke-width="2.0" x1="0.0" x2="0.0" y1="0.0" y2="0.0"/><text fill="#000" font-family="Liberation Sans" font-size="90.0pt" font-weight="bold" stroke-width="0.0" text-anchor="middle" x="-0.9999999999999962" y="37">Remaiten</text><text fill="#000" font-family="Liberation Sans" font-size="80.0pt" font-weight="bold" stroke-width="0.0" text-anchor="middle" x="-0.999999999999921" y="235">2016</text><polyline fill="none" points="3.031000827889699e-13,550.0 57.49065479720971,546.9870424525503 114.35142994976792,537.981180403593 169.95934690622136,523.0810839623343 223.70515369169036,502.4500017034303 275.0000000000002,476.313972081441 323.2818887608604,444.95934690622084 368.02183349737214,408.7296540125666 408.7296540125669,368.02183349737174 444.9593469062211,323.28188876085994 476.31397208144125,274.9999999999997 502.4500017034304,223.70515369168984 523.0810839623343,169.95934690622084 537.9811804035929,114.35142994976744 546.9870424525501,57.49065479720926 549.9999999999998,-9.947598300641403e-14 546.9870424525501,-57.49065479720945 537.9811804035928,-114.35142994976762 523.0810839623341,-169.95934690622101 502.45000170343013,-223.70515369169 476.3139720814409,-274.9999999999998 444.95934690622073,-323.2818887608599 408.72965401256647,-368.0218334973716 368.0218334973717,-408.7296540125663 323.28188876085994,-444.95934690622045 274.9999999999998,-476.3139720814405 223.70515369168993,-502.4500017034297 169.95934690622096,-523.0810839623335 114.3514299497676,-537.9811804035921 57.49065479720948,-546.9870424525493 1.7763568394002505e-13,-549.999999999999 -57.49065479720912,-546.9870424525493 -114.35142994976722,-537.981180403592 -169.95934690622056,-523.0810839623334 -223.70515369168947,-502.45000170342945 -274.9999999999992,-476.3139720814402 -323.2818887608593,-444.9593469062201 -368.021833497371,-408.7296540125659 -408.7296540125657,-368.0218334973712 -444.9593469062198,-323.2818887608595 -476.3139720814399,-274.9999999999994 -502.45000170342905,-223.70515369168962 -523.081083962333,-169.95934690622073" stroke="#000" stroke-linecap="round" stroke-linejoin="round" stroke-width="15.0"/><polyline fill="none" points="-523.081083962333,-169.95934690622073 -537.9811804035916,-114.35142994976744 -546.9870424525487,-57.490654797209366 -549.9999999999984,-1.2079226507921703e-13 -546.9870424525487,57.49065479720912 -537.9811804035915,114.35142994976717 -523.0810839623329,169.95934690622045 -502.45000170342894,223.7051536916893 -476.3139720814398,274.99999999999903 -444.9593469062197,323.2818887608591 -408.72965401256556,368.0218334973707 -368.02183349737084,408.7296540125654 -323.28188876085915,444.9593469062195 -274.9999999999991,476.31397208143954 -223.70515369168936,502.45000170342865 -169.9593469062205,523.0810839623325 -114.35142994976724,537.9811804035911 -57.49065479720921,546.9870424525483 -1.4210854715202004e-14,549.999999999998" stroke="#000" stroke-linecap="round" stroke-linejoin="round" stroke-width="15.0"/><polyline fill="none" points="2.767946904201656e-13,624.9999999999977 65.33028954228344,621.5761846051686 129.94480676109936,611.3422504586263 193.13562148434164,594.4103226844687 254.2104019223744,570.9659110266233 312.499999999999,541.265877365272 367.3657826827945,505.6356214843401 418.2066289742849,464.4655159233695 464.4655159233697,418.2066289742846 505.6356214843403,367.36578268279413 541.2658773652721,312.49999999999864 570.9659110266233,254.210401922374 594.4103226844686,193.13562148434124 611.342250458626,129.94480676109896 621.5761846051682,65.33028954228308 624.9999999999974,-2.842170943040401e-14 621.5761846051682,-65.33028954228314 611.3422504586259,-129.944806761099 594.4103226844684,-193.13562148434124 570.9659110266231,-254.21040192237393 541.2658773652718,-312.4999999999985 505.6356214843399,-367.36578268279396 464.4655159233693,-418.20662897428434 418.2066289742845,-464.4655159233691 367.3657826827941,-505.6356214843396 312.49999999999864,-541.2658773652714 254.21040192237407,-570.9659110266226 193.1356214843414,-594.4103226844679 129.9448067610992,-611.3422504586254 65.33028954228337,-621.5761846051676 3.126388037344441e-13,-624.9999999999967 -65.33028954228274,-621.5761846051676 -129.94480676109853,-611.3422504586252 -193.13562148434073,-594.4103226844678 -254.21040192237336,-570.9659110266225 -312.4999999999979,-541.2658773652713 -367.3657826827933,-505.6356214843395 -418.20662897428366,-464.46551592336897 -464.4655159233684,-418.20662897428423 -505.6356214843389,-367.36578268279385 -541.2658773652707,-312.49999999999847 -570.9659110266219,-254.21040192237396 -594.4103226844672,-193.13562148434136" stroke="#ff4500" stroke-linecap="round" stroke-linejoin="round" stroke-width="15.0"/><polyline fill="none" points="-594.4103226844672,-193.13562148434136 -611.3422504586247,-129.9448067610992 -621.5761846051669,-65.33028954228342 -624.999999999996,-4.263256414560601e-13 -621.5761846051669,65.33028954228257 -611.3422504586247,129.94480676109833 -594.4103226844672,193.13562148434048 -570.9659110266219,254.21040192237305 -541.2658773652707,312.49999999999756 -505.63562148433897,367.3657826827929 -464.4655159233685,418.2066289742832 -418.20662897428383,464.4655159233679 -367.3657826827935,505.63562148433834 -312.4999999999982,541.2658773652701 -254.21040192237373,570.9659110266213 -193.1356214843412,594.4103226844665 -129.94480676109907,611.3422504586239 -65.33028954228338,621.5761846051661 -4.405364961712621e-13,624.9999999999952" stroke="#ff4500" stroke-linecap="round" stroke-linejoin="round" stroke-width="15.0"/><line fill="none" stroke="none" stroke-linecap="round" stroke-width="2.0" x1="0.0" x2="0.0" y1="0.0" y2="0.0"/><polygon fill="none" fill-rule="evenodd" points="0.0,0.0 0.0,0.0 0.0,0.0" stroke-linejoin="round"/></svg>