<?xml version="1.0" ?><!DOCTYPE svg  PUBLIC '-//W3C//DTD SVG 1.1//EN'  'http://www.w3.org/Graphics/SVG/1.1/DTD/svg11.dtd'><svg height="1091.000" viewBox="-545.000 -545.000 1091.000 1091.000" width="1091.000" xmlns="http://www.w3.org/2000/svg"><line fill="none" stroke="none" stroke-linecap="round" stroke-width="2.0" x1="0.0" x2="0.0" y1="0.0" y2="0.0"/><text fill="#000" font-family="Liberation Sans" font-size="89.0pt" font-weight="bold" stroke-width="0.0" text-anchor="middle" x="-0.9999999999999967" y="29">Echobot</text><text fill="#000" font-family="Liberation Sans" font-size="80.0pt" font-weight="bold" stroke-width="0.0" text-anchor="middle" x="-0.999999999999924" y="225">2019</text><polyline fill="none" points="2.8656735100048065e-13,520.0 54.35480089918008,517.151385591502 108.11407922523512,508.6367523815788 160.6888370749729,494.54938847347967 211.50305439941633,475.04363797415226 260.00000000000017,450.33320996790786 305.6483311920862,420.6888370749724 347.9479153066064,386.4353092482447 386.43530924824506,347.947915306606 420.68883707497264,305.6483311920857 450.33320996790803,259.9999999999997 475.0436379741524,211.50305439941584 494.5493884734797,160.6888370749724 508.63675238157873,108.11407922523463 517.1513855915019,54.35480089917963 519.9999999999998,-1.2789769243681803e-13 517.1513855915018,-54.35480089917988 508.6367523815786,-108.11407922523486 494.5493884734795,-160.6888370749726 475.0436379741521,-211.503054399416 450.3332099679077,-259.9999999999998 420.68883707497224,-305.6483311920857 386.4353092482446,-347.94791530660586 347.9479153066059,-386.4353092482445 305.6483311920857,-420.68883707497207 259.9999999999997,-450.3332099679074 211.50305439941587,-475.0436379741517 160.6888370749725,-494.54938847347904 108.11407922523478,-508.63675238157805 54.35480089917982,-517.1513855915013 1.2079226507921703e-13,-519.9999999999991 -54.35480089917957,-517.1513855915013 -108.11407922523452,-508.63675238157805 -160.6888370749722,-494.549388473479 -211.50305439941553,-475.0436379741516 -259.9999999999993,-450.33320996790724 -305.6483311920852,-420.68883707497184 -347.94791530660535,-386.43530924824427 -386.435309248244,-347.94791530660564 -420.6888370749715,-305.6483311920855 -450.33320996790684,-259.99999999999955 -475.0436379741511,-211.50305439941576 -494.5493884734784,-160.68883707497244" stroke="#000" stroke-linecap="round" stroke-linejoin="round" stroke-width="15.0"/><polyline fill="none" points="-494.5493884734784,-160.68883707497244 -508.6367523815774,-108.11407922523478 -517.1513855915006,-54.35480089917987 -519.9999999999984,-2.2737367544323206e-13 -517.1513855915006,54.35480089917941 -508.63675238157737,108.11407922523429 -494.5493884734783,160.68883707497193 -475.04363797415095,211.5030543994152 -450.33320996790667,259.9999999999989 -420.68883707497133,305.6483311920848 -386.43530924824375,347.9479153066049 -347.9479153066051,386.43530924824347 -305.648331192085,420.688837074971 -259.9999999999991,450.3332099679063 -211.50305439941536,475.0436379741506 -160.68883707497207,494.5493884734779 -108.11407922523445,508.6367523815769 -54.35480089917959,517.1513855915001 1.4210854715202004e-14,519.999999999998" stroke="#000" stroke-linecap="round" stroke-linejoin="round" stroke-width="15.0"/><line fill="none" stroke="none" stroke-linecap="round" stroke-width="2.0" x1="0.0" x2="0.0" y1="0.0" y2="0.0"/><polygon fill="none" fill-rule="evenodd" points="0.0,0.0 0.0,0.0 0.0,0.0" stroke-linejoin="round"/></svg>