<?xml version="1.0" ?><!DOCTYPE svg  PUBLIC '-//W3C//DTD SVG 1.1//EN'  'http://www.w3.org/Graphics/SVG/1.1/DTD/svg11.dtd'><svg height="1391.000" viewBox="-695.000 -695.000 1391.000 1391.000" width="1391.000" xmlns="http://www.w3.org/2000/svg"><line fill="none" stroke="none" stroke-linecap="round" stroke-width="2.0" x1="0.0" x2="0.0" y1="0.0" y2="0.0"/><text fill="#000" font-family="Liberation Sans" font-size="89.0pt" font-weight="bold" stroke-width="0.0" text-anchor="middle" x="-0.9999999999999967" y="29">Hydra</text><text fill="#000" font-family="Liberation Sans" font-size="80.0pt" font-weight="bold" stroke-width="0.0" text-anchor="middle" x="-0.999999999999924" y="225">2008</text><polyline fill="none" points="2.8656735100048065e-13,520.0 54.35480089918008,517.151385591502 108.11407922523512,508.6367523815788 160.6888370749729,494.54938847347967 211.50305439941633,475.04363797415226 260.00000000000017,450.33320996790786 305.6483311920862,420.6888370749724 347.9479153066064,386.4353092482447 386.43530924824506,347.947915306606 420.68883707497264,305.6483311920857 450.33320996790803,259.9999999999997 475.0436379741524,211.50305439941584 494.5493884734797,160.6888370749724 508.63675238157873,108.11407922523463 517.1513855915019,54.35480089917963 519.9999999999998,-1.2789769243681803e-13 517.1513855915018,-54.35480089917988 508.6367523815786,-108.11407922523486 494.5493884734795,-160.6888370749726 475.0436379741521,-211.503054399416 450.3332099679077,-259.9999999999998 420.68883707497224,-305.6483311920857 386.4353092482446,-347.94791530660586 347.9479153066059,-386.4353092482445 305.6483311920857,-420.68883707497207 259.9999999999997,-450.3332099679074 211.50305439941587,-475.0436379741517 160.6888370749725,-494.54938847347904 108.11407922523478,-508.63675238157805 54.35480089917982,-517.1513855915013 1.2079226507921703e-13,-519.9999999999991 -54.35480089917957,-517.1513855915013 -108.11407922523452,-508.63675238157805 -160.6888370749722,-494.549388473479 -211.50305439941553,-475.0436379741516 -259.9999999999993,-450.33320996790724 -305.6483311920852,-420.68883707497184 -347.94791530660535,-386.43530924824427 -386.435309248244,-347.94791530660564 -420.6888370749715,-305.6483311920855 -450.33320996790684,-259.99999999999955 -475.0436379741511,-211.50305439941576 -494.5493884734784,-160.68883707497244" stroke="#000" stroke-linecap="round" stroke-linejoin="round" stroke-width="15.0"/><polyline fill="none" points="-494.5493884734784,-160.68883707497244 -508.6367523815774,-108.11407922523478 -517.1513855915006,-54.35480089917987 -519.9999999999984,-2.2737367544323206e-13 -517.1513855915006,54.35480089917941 -508.63675238157737,108.11407922523429 -494.5493884734783,160.68883707497193 -475.04363797415095,211.5030543994152 -450.33320996790667,259.9999999999989 -420.68883707497133,305.6483311920848 -386.43530924824375,347.9479153066049 -347.9479153066051,386.43530924824347 -305.648331192085,420.688837074971 -259.9999999999991,450.3332099679063 -211.50305439941536,475.0436379741506 -160.68883707497207,494.5493884734779 -108.11407922523445,508.6367523815769 -54.35480089917959,517.1513855915001 1.4210854715202004e-14,519.999999999998" stroke="#000" stroke-linecap="round" stroke-linejoin="round" stroke-width="15.0"/><polyline fill="none" points="2.635085452799977e-13,594.9999999999978 62.19443564425384,591.7405277441204 123.7074560365666,581.9978224366122 183.86511165309327,565.8786271956142 242.00830263010045,543.5595472973454 297.4999999999991,515.285115251739 349.73222511402037,481.3651116530918 398.13271078351926,442.1711711590478 442.17117115904796,398.13271078351903 481.3651116530919,349.7322251140201 515.2851152517391,297.49999999999875 543.5595472973455,242.0083026301001 565.8786271956142,183.86511165309292 581.9978224366121,123.70745603656627 591.7405277441203,62.19443564425355 594.9999999999976,2.1316282072803006e-14 591.7405277441202,-62.1944356442535 581.997822436612,-123.7074560365662 565.8786271956141,-183.8651116530928 543.5595472973453,-242.00830263009993 515.2851152517388,-297.4999999999985 481.3651116530917,-349.73222511401974 442.1711711590477,-398.13271078351863 398.1327107835189,-442.17117115904733 349.73222511402,-481.3651116530913 297.49999999999875,-515.2851152517384 242.00830263010016,-543.5595472973447 183.86511165309304,-565.8786271956134 123.70745603656644,-581.9978224366113 62.19443564425378,-591.7405277441195 2.984279490192421e-13,-594.9999999999968 -62.194435644253176,-591.7405277441195 -123.70745603656582,-581.9978224366113 -183.86511165309238,-565.8786271956134 -242.00830263009945,-543.5595472973447 -297.499999999998,-515.2851152517383 -349.73222511401923,-481.36511165309116 -398.13271078351806,-442.1711711590472 -442.1711711590467,-398.1327107835185 -481.3651116530906,-349.7322251140197 -515.2851152517377,-297.49999999999847 -543.559547297344,-242.00830263009993 -565.8786271956127,-183.86511165309287" stroke="#000080" stroke-linecap="round" stroke-linejoin="round" stroke-width="15.0"/><polyline fill="none" points="-565.8786271956127,-183.86511165309287 -581.9978224366106,-123.70745603656633 -591.7405277441188,-62.194435644253716 -594.9999999999961,-2.913225216616411e-13 -591.7405277441188,62.19443564425313 -581.9978224366106,123.70745603656573 -565.8786271956127,183.86511165309224 -543.559547297344,242.00830263009925 -515.2851152517377,297.4999999999978 -481.36511165309065,349.73222511401895 -442.17117115904676,398.1327107835177 -398.1327107835181,442.17117115904637 -349.73222511401934,481.36511165309025 -297.4999999999982,515.2851152517372 -242.0083026300997,543.5595472973436 -183.8651116530927,565.8786271956122 -123.70745603656621,581.9978224366101 -62.194435644253666,591.7405277441184 -3.055333763768431e-13,594.9999999999957" stroke="#000080" stroke-linecap="round" stroke-linejoin="round" stroke-width="15.0"/><polyline fill="none" points="8.286719801199663e-14,669.9999999999951 70.03407038932738,666.3296698967382 139.3008328478978,655.358892491645 207.0413862312133,637.2078659177482 272.51355086078416,612.0754566205381 334.99999999999756,580.2370205355696 393.8161190359541,542.0413862312108 448.3175062604317,497.9070330698505 497.9070330698504,448.31750626043174 542.0413862312107,393.81611903595416 580.2370205355695,334.9999999999976 612.0754566205379,272.5135508607842 637.207865917748,207.04138623121338 655.3588924916447,139.3008328478979 666.329669896738,70.03407038932754 669.9999999999948,2.8421709430404007e-13 666.3296698967379,-70.03407038932697 655.3588924916446,-139.3008328478973 637.2078659177479,-207.04138623121275 612.0754566205378,-272.51355086078354 580.2370205355694,-334.9999999999969 542.0413862312106,-393.81611903595336 497.90703306985034,-448.3175062604309 448.3175062604316,-497.9070330698496 393.8161190359541,-542.0413862312098 334.9999999999976,-580.2370205355686 272.51355086078433,-612.075456620537 207.04138623121355,-637.2078659177471 139.30083284789814,-655.3588924916438 70.03407038932782,-666.3296698967371 6.252776074688882e-13,-669.9999999999939 -70.03407038932656,-666.3296698967371 -139.30083284789686,-655.3588924916438 -207.04138623121224,-637.2078659177471 -272.51355086078297,-612.075456620537 -334.99999999999625,-580.2370205355686 -393.8161190359527,-542.0413862312098 -448.31750626043015,-497.9070330698496 -497.9070330698488,-448.31750626043095 -542.041386231209,-393.8161190359535 -580.2370205355677,-334.99999999999704 -612.0754566205361,-272.5135508607838 -637.2078659177462,-207.0413862312131" stroke="#228b22" stroke-linecap="round" stroke-linejoin="round" stroke-width="15.0"/><polyline fill="none" points="-637.2078659177462,-207.0413862312131 -655.3588924916429,-139.30083284789777 -666.3296698967362,-70.03407038932752 -669.999999999993,-3.979039320256561e-13 -666.3296698967362,70.03407038932673 -655.3588924916429,139.30083284789697 -637.2078659177462,207.0413862312123 -612.0754566205361,272.51355086078297 -580.2370205355677,334.9999999999962 -542.041386231209,393.81611903595257 -497.9070330698488,448.31750626043004 -448.3175062604302,497.9070330698487 -393.8161190359528,542.0413862312089 -334.9999999999964,580.2370205355676 -272.5135508607832,612.075456620536 -207.04138623121253,637.2078659177461 -139.30083284789723,655.3588924916428 -70.03407038932703,666.329669896736 5.684341886080802e-14,669.9999999999928" stroke="#228b22" stroke-linecap="round" stroke-linejoin="round" stroke-width="15.0"/><line fill="none" stroke="none" stroke-linecap="round" stroke-width="2.0" x1="0.0" x2="0.0" y1="0.0" y2="0.0"/><polygon fill="none" fill-rule="evenodd" points="0.0,0.0 0.0,0.0 0.0,0.0" stroke-linejoin="round"/></svg>