<?xml version="1.0" ?><!DOCTYPE svg  PUBLIC '-//W3C//DTD SVG 1.1//EN'  'http://www.w3.org/Graphics/SVG/1.1/DTD/svg11.dtd'><svg height="1901.000" viewBox="-950.000 -950.000 1901.000 1901.000" width="1901.000" xmlns="http://www.w3.org/2000/svg"><line fill="none" stroke="none" stroke-linecap="round" stroke-width="2.0" x1="0.0" x2="0.0" y1="0.0" y2="0.0"/><text fill="#000" font-family="Liberation Sans" font-size="95.0pt" font-weight="bold" stroke-width="0.0" text-anchor="middle" x="-0.9999999999999939" y="73">Aidra</text><text fill="#000" font-family="Liberation Sans" font-size="80.0pt" font-weight="bold" stroke-width="0.0" text-anchor="middle" x="-0.9999999999999056" y="285">2012</text><polyline fill="none" points="3.8576374173141627e-13,700.0 73.1699242873578,696.1653267577913 145.53818357243188,684.7033205136638 216.31189606246352,665.7395614066073 284.71565015306044,639.4818203498204 350.0000000000002,606.2177826491068 411.44967660473134,566.3118960624629 468.3914244512008,520.2013778341757 520.2013778341759,468.39142445120046 566.3118960624631,411.4496766047309 606.2177826491069,349.9999999999997 639.4818203498204,284.71565015305987 665.7395614066072,216.31189606246295 684.7033205136636,145.53818357243134 696.1653267577909,73.16992428735729 699.9999999999995,-7.105427357601002e-14 696.1653267577908,-73.16992428735743 684.7033205136634,-145.53818357243148 665.7395614066069,-216.31189606246306 639.4818203498199,-284.7156501530599 606.2177826491063,-349.99999999999966 566.3118960624624,-411.4496766047307 520.2013778341752,-468.3914244512002 468.3914244512,-520.2013778341753 411.4496766047305,-566.3118960624624 349.9999999999994,-606.2177826491062 284.7156501530596,-639.4818203498197 216.31189606246272,-665.7395614066065 145.53818357243117,-684.7033205136629 73.16992428735719,-696.1653267577902 -9.947598300641403e-14,-699.9999999999989 -73.16992428735739,-696.1653267577901 -145.53818357243136,-684.7033205136627 -216.31189606246286,-665.7395614066062 -284.71565015305964,-639.4818203498194 -349.9999999999993,-606.2177826491059 -411.44967660473037,-566.3118960624621 -468.3914244511998,-520.201377834175 -520.2013778341749,-468.3914244511999 -566.311896062462,-411.4496766047305 -606.2177826491057,-349.99999999999943 -639.4818203498191,-284.71565015305976 -665.739561406606,-216.31189606246298" stroke="#000" stroke-linecap="round" stroke-linejoin="round" stroke-width="15.0"/><polyline fill="none" points="-665.739561406606,-216.31189606246298 -684.7033205136623,-145.53818357243148 -696.1653267577897,-73.16992428735757 -699.9999999999983,-3.552713678800501e-13 -696.1653267577896,73.16992428735685 -684.7033205136622,145.53818357243074 -665.7395614066058,216.31189606246218 -639.481820349819,284.7156501530589 -606.2177826491055,349.9999999999985 -566.3118960624618,411.4496766047295 -520.2013778341747,468.3914244511989 -468.39142445119955,520.2013778341739 -411.44967660473014,566.311896062461 -349.99999999999915,606.2177826491046 -284.7156501530595,639.481820349818 -216.3118960624628,665.7395614066047 -145.53818357243136,684.7033205136611 -73.16992428735752,696.1653267577884 -3.552713678800501e-13,699.999999999997" stroke="#000" stroke-linecap="round" stroke-linejoin="round" stroke-width="15.0"/><polyline fill="none" points="3.4322541612100537e-13,774.9999999999972 81.00955903243148,770.754468910409 161.13156038376323,758.0643905686965 239.4881706405837,737.0688001287411 315.22089838374427,707.9977296730128 387.4999999999988,671.1696879329372 455.5335705266652,626.9881706405816 518.5762199281133,575.9372397449781 575.9372397449785,518.5762199281129 626.988170640582,455.5335705266647 671.1696879329374,387.4999999999983 707.997729673013,315.22089838374376 737.0688001287413,239.48817064058318 758.0643905686965,161.13156038376275 770.7544689104088,81.00955903243106 774.9999999999969,-1.4210854715202004e-14 770.7544689104087,-81.00955903243108 758.0643905686962,-161.13156038376275 737.0688001287409,-239.48817064058312 707.9977296730127,-315.22089838374364 671.1696879329371,-387.4999999999981 626.9881706405816,-455.53357052666445 575.9372397449781,-518.5762199281126 518.576219928113,-575.9372397449777 455.53357052666485,-626.9881706405811 387.4999999999985,-671.1696879329365 315.22089838374404,-707.997729673012 239.48817064058352,-737.0688001287401 161.13156038376314,-758.0643905686953 81.00955903243153,-770.7544689104077 5.258016244624741e-13,-774.9999999999958 -81.00955903243047,-770.7544689104076 -161.13156038376206,-758.0643905686952 -239.48817064058238,-737.06880012874 -315.22089838374285,-707.9977296730118 -387.49999999999727,-671.1696879329363 -455.53357052666354,-626.9881706405808 -518.5762199281116,-575.9372397449774 -575.9372397449768,-518.5762199281123 -626.9881706405802,-455.5335705266642 -671.1696879329356,-387.49999999999795 -707.9977296730111,-315.2208983837436 -737.0688001287392,-239.48817064058315" stroke="#f0f" stroke-linecap="round" stroke-linejoin="round" stroke-width="15.0"/><polyline fill="none" points="-737.0688001287392,-239.48817064058315 -758.0643905686944,-161.13156038376286 -770.7544689104068,-81.00955903243131 -774.9999999999949,-3.836930773104541e-13 -770.7544689104068,81.00955903243054 -758.0643905686944,161.13156038376206 -737.0688001287392,239.48817064058233 -707.9977296730111,315.22089838374274 -671.1696879329356,387.4999999999971 -626.9881706405802,455.5335705266633 -575.9372397449768,518.5762199281113 -518.5762199281118,575.9372397449763 -455.53357052666377,626.9881706405797 -387.49999999999756,671.1696879329351 -315.22089838374325,707.9977296730106 -239.4881706405829,737.0688001287386 -161.1315603837627,758.0643905686939 -81.00955903243121,770.7544689104062 -3.694822225952521e-13,774.9999999999943" stroke="#f0f" stroke-linecap="round" stroke-linejoin="round" stroke-width="15.0"/><polyline fill="none" points="1.0513002732865244e-13,849.9999999999937 88.84919377750488,845.3436110630261 176.72493719509418,831.4254606237286 262.6644452187034,808.3980388508744 345.72614661442765,776.5136389962048 424.9999999999968,736.1215932167672 499.6174644485984,687.6644452187 568.7610154050252,631.6731016557802 631.6731016557803,568.7610154050251 687.6644452187,499.6174644485983 736.1215932167672,424.9999999999967 776.5136389962048,345.72614661442753 808.3980388508743,262.66444521870335 831.4254606237283,176.72493719509418 845.3436110630257,88.84919377750491 849.9999999999933,1.8474111129762605e-13 845.3436110630256,-88.84919377750452 831.4254606237282,-176.7249371950938 808.3980388508742,-262.6644452187029 776.5136389962047,-345.7261466144271 736.1215932167671,-424.99999999999625 687.6644452186999,-499.6174644485978 631.6731016557802,-568.7610154050245 568.7610154050251,-631.6731016557796 499.6174644485984,-687.6644452186994 424.99999999999693,-736.1215932167665 345.7261466144278,-776.5136389962041 262.6644452187037,-808.3980388508736 176.72493719509458,-831.4254606237276 88.84919377750539,-845.343611063025 7.531752999057062e-13,-849.9999999999926 -88.84919377750388,-845.343611063025 -176.72493719509305,-831.4254606237276 -262.6644452187021,-808.3980388508736 -345.72614661442617,-776.5136389962041 -424.9999999999952,-736.1215932167665 -499.6174644485967,-687.6644452186995 -568.7610154050234,-631.6731016557798 -631.6731016557784,-568.7610154050248 -687.6644452186981,-499.61746444859807 -736.1215932167652,-424.99999999999665 -776.5136389962026,-345.7261466144276 -808.3980388508721,-262.6644452187036" stroke="#ffd700" stroke-linecap="round" stroke-linejoin="round" stroke-width="15.0"/><polyline fill="none" points="-808.3980388508721,-262.6644452187036 -831.4254606237262,-176.72493719509458 -845.3436110630236,-88.84919377750548 -849.9999999999911,-9.094947017729282e-13 -845.3436110630236,88.84919377750364 -831.4254606237262,176.72493719509274 -808.3980388508721,262.66444521870176 -776.5136389962026,345.7261466144258 -736.1215932167652,424.99999999999477 -687.6644452186981,499.61746444859614 -631.6731016557785,568.7610154050227 -568.7610154050235,631.6731016557777 -499.61746444859693,687.6644452186973 -424.99999999999557,736.1215932167644 -345.7261466144266,776.5136389962018 -262.66444521870267,808.3980388508713 -176.72493719509373,831.4254606237254 -88.84919377750468,845.3436110630228 -1.7053025658242404e-13,849.9999999999905" stroke="#ffd700" stroke-linecap="round" stroke-linejoin="round" stroke-width="15.0"/><polyline fill="none" points="-1.68006775678432e-13,924.9999999999902 96.68882852257826,919.9327532156431 192.31831400642517,904.7865306787606 285.8407197968231,879.7272775730078 376.23139484511097,845.0295483193969 462.4999999999948,801.0734985005973 543.7013583705316,748.3407197968186 618.945810881937,687.4089635665825 687.4089635665821,618.9458108819375 748.3407197968181,543.7013583705321 801.0734985005969,462.49999999999545 845.0295483193964,376.2313948451116 879.7272775730073,285.8407197968238 904.7865306787602,192.31831400642588 919.9327532156426,96.68882852257903 924.9999999999898,6.536993168992922e-13 919.9327532156427,-96.68882852257772 904.7865306787603,-192.31831400642457 879.7272775730074,-285.8407197968225 845.0295483193967,-376.23139484511034 801.0734985005971,-462.4999999999942 748.3407197968183,-543.7013583705309 687.4089635665823,-618.9458108819363 618.9458108819373,-687.4089635665813 543.701358370532,-748.3407197968173 462.49999999999534,-801.0734985005961 376.23139484511154,-845.0295483193956 285.84071979682375,-879.7272775730065 192.31831400642585,-904.7865306787594 96.68882852257904,-919.9327532156418 6.963318810448982e-13,-924.999999999989 -96.68882852257765,-919.9327532156419 -192.31831400642446,-904.7865306787595 -285.8407197968223,-879.7272775730066 -376.2313948451101,-845.0295483193959 -462.4999999999939,-801.0734985005963 -543.7013583705307,-748.3407197968176 -618.945810881936,-687.4089635665816 -687.4089635665811,-618.9458108819367 -748.3407197968171,-543.7013583705315 -801.0734985005959,-462.4999999999948 -845.0295483193954,-376.2313948451111 -879.7272775730063,-285.84071979682335" stroke="#800080" stroke-linecap="round" stroke-linejoin="round" stroke-width="15.0"/><polyline fill="none" points="-879.7272775730063,-285.84071979682335 -904.7865306787592,-192.3183140064255 -919.9327532156417,-96.68882852257875 -924.9999999999889,-4.547473508864641e-13 -919.9327532156418,96.68882852257784 -904.7865306787594,192.3183140064246 -879.7272775730066,285.84071979682244 -845.0295483193959,376.2313948451102 -801.0734985005963,462.499999999994 -748.3407197968177,543.7013583705307 -687.4089635665817,618.9458108819359 -618.9458108819368,687.408963566581 -543.7013583705316,748.340719796817 -462.499999999995,801.0734985005957 -376.23139484511125,845.0295483193953 -285.8407197968236,879.7272775730062 -192.3183140064258,904.786530678759 -96.68882852257907,919.9327532156416 -8.242295734817162e-13,924.9999999999887" stroke="#800080" stroke-linecap="round" stroke-linejoin="round" stroke-width="15.0"/><line fill="none" stroke="none" stroke-linecap="round" stroke-width="2.0" x1="0.0" x2="0.0" y1="0.0" y2="0.0"/><polygon fill="none" fill-rule="evenodd" points="0.0,0.0 0.0,0.0 0.0,0.0" stroke-linejoin="round"/></svg>