<?xml version="1.0" ?><!DOCTYPE svg  PUBLIC '-//W3C//DTD SVG 1.1//EN'  'http://www.w3.org/Graphics/SVG/1.1/DTD/svg11.dtd'><svg height="2021.000" viewBox="-1010.000 -1010.000 2021.000 2021.000" width="2021.000" xmlns="http://www.w3.org/2000/svg"><line fill="none" stroke="none" stroke-linecap="round" stroke-width="2.0" x1="0.0" x2="0.0" y1="0.0" y2="0.0"/><text fill="#000" font-family="Liberation Sans" font-size="97.0pt" font-weight="bold" stroke-width="0.0" text-anchor="middle" x="-0.999999999999993" y="87">Bashlite</text><text fill="#000" font-family="Liberation Sans" font-size="80.0pt" font-weight="bold" stroke-width="0.0" text-anchor="middle" x="-0.9999999999998995" y="305">2014</text><polyline fill="none" points="4.188292053083948e-13,760.0 79.44163208341705,755.8366404798877 158.01288502149748,743.3921765576922 234.85291572496038,722.8029523843165 309.11984873760844,694.2945478083765 380.0000000000002,658.1793068761731 446.7167917422797,614.8529157249598 508.53926083273234,564.7900673628193 564.7900673628196,508.5392608327319 614.85291572496,446.7167917422792 658.1793068761732,379.99999999999966 694.2945478083765,309.11984873760787 722.8029523843164,234.8529157249598 743.392176557692,158.01288502149688 755.8366404798874,79.4416320834165 759.9999999999995,-7.105427357601002e-14 755.8366404798873,-79.44163208341664 743.3921765576918,-158.01288502149703 722.8029523843162,-234.85291572495987 694.2945478083761,-309.11984873760787 658.1793068761729,-379.9999999999996 614.8529157249595,-446.71679174227904 564.7900673628192,-508.5392608327316 508.5392608327318,-564.7900673628188 446.7167917422792,-614.8529157249592 379.9999999999997,-658.1793068761724 309.119848737608,-694.2945478083756 234.85291572495998,-722.8029523843155 158.01288502149714,-743.392176557691 79.44163208341682,-755.8366404798863 3.268496584496461e-13,-759.9999999999985 -79.44163208341615,-755.8366404798862 -158.01288502149646,-743.3921765576907 -234.85291572495925,-722.8029523843152 -309.1198487376072,-694.2945478083751 -379.99999999999886,-658.1793068761718 -446.71679174227825,-614.8529157249586 -508.53926083273075,-564.7900673628183 -564.7900673628179,-508.539260832731 -614.8529157249582,-446.7167917422784 -658.1793068761714,-379.999999999999 -694.2945478083745,-309.1198487376073 -722.8029523843145,-234.85291572495936" stroke="#000" stroke-linecap="round" stroke-linejoin="round" stroke-width="15.0"/><polyline fill="none" points="-722.8029523843145,-234.85291572495936 -743.3921765576899,-158.01288502149663 -755.8366404798853,-79.44163208341638 -759.9999999999975,2.842170943040401e-14 -755.8366404798852,79.44163208341644 -743.3921765576897,158.01288502149666 -722.8029523843142,234.85291572495936 -694.2945478083742,309.11984873760724 -658.1793068761709,379.99999999999886 -614.8529157249577,446.71679174227825 -564.7900673628175,508.5392608327307 -508.53926083273024,564.7900673628178 -446.71679174227774,614.852915724958 -379.99999999999835,658.1793068761712 -309.11984873760673,694.2945478083743 -234.85291572495885,722.8029523843143 -158.01288502149617,743.3921765576897 -79.441632083416,755.8366404798851 3.552713678800501e-13,759.9999999999973" stroke="#000" stroke-linecap="round" stroke-linejoin="round" stroke-width="15.0"/><polyline fill="none" points="3.6979770640134127e-13,834.9999999999969 87.28126682849069,830.4257826325052 173.60626183282875,816.7532466127246 258.02919030308044,794.1321911064503 339.62509696829215,762.8104571315688 417.49999999999864,723.1312121600034 490.80068566421335,675.5291903030784 558.7240563096445,620.5259292736216 620.5259292736218,558.7240563096443 675.5291903030785,490.800685664213 723.1312121600034,417.49999999999824 762.8104571315687,339.6250969682917 794.13219110645,258.02919030308 816.7532466127243,173.6062618328283 830.4257826325047,87.28126682849029 834.9999999999964,4.263256414560601e-14 830.4257826325046,-87.28126682849019 816.7532466127241,-173.60626183282818 794.1321911064497,-258.0291903030798 762.8104571315683,-339.6250969682915 723.131212160003,-417.4999999999979 675.529190303078,-490.80068566421255 620.5259292736214,-558.7240563096437 558.7240563096441,-620.5259292736209 490.8006856642129,-675.5291903030775 417.4999999999982,-723.1312121600024 339.62509696829176,-762.8104571315677 258.0291903030801,-794.132191106449 173.6062618328285,-816.7532466127233 87.28126682849056,-830.4257826325037 3.979039320256561e-13,-834.9999999999955 -87.28126682848976,-830.4257826325037 -173.60626183282767,-816.7532466127232 -258.02919030307925,-794.1321911064488 -339.62509696829085,-762.8104571315674 -417.4999999999972,-723.1312121600022 -490.80068566421187,-675.5291903030773 -558.724056309643,-620.5259292736207 -620.5259292736201,-558.7240563096435 -675.5291903030767,-490.8006856642124 -723.1312121600016,-417.4999999999978 -762.8104571315669,-339.6250969682915 -794.1321911064482,-258.0291903030799" stroke="#ff4500" stroke-linecap="round" stroke-linejoin="round" stroke-width="15.0"/><polyline fill="none" points="-794.1321911064482,-258.0291903030799 -816.7532466127225,-173.60626183282835 -830.4257826325029,-87.2812668284905 -834.9999999999947,-4.121147867408581e-13 -830.4257826325029,87.28126682848968 -816.7532466127225,173.6062618328275 -794.1321911064482,258.02919030307896 -762.810457131567,339.6250969682905 -723.1312121600017,417.4999999999968 -675.5291903030769,490.8006856642114 -620.5259292736204,558.7240563096425 -558.7240563096432,620.5259292736197 -490.8006856642121,675.5291903030762 -417.49999999999756,723.131212160001 -339.6250969682913,762.8104571315662 -258.0291903030798,794.1321911064474 -173.60626183282835,816.7532466127217 -87.28126682849059,830.4257826325021 -5.826450433232822e-13,834.9999999999939" stroke="#ff4500" stroke-linecap="round" stroke-linejoin="round" stroke-width="15.0"/><polyline fill="none" points="1.1255097043420438e-13,909.9999999999933 95.12090157356405,905.014924785122 189.19963864415968,890.1143166677565 281.2054648812001,865.4614298285833 370.1303451989754,831.3263664547605 454.9999999999966,788.0831174438332 534.8845795861465,736.2054648811966 608.9088517865564,676.2617911844236 676.2617911844236,608.9088517865563 736.2054648811965,534.8845795861464 788.0831174438331,454.9999999999965 831.3263664547603,370.1303451989753 865.4614298285829,281.2054648812 890.114316667756,189.19963864415956 905.0149247851215,95.12090157356398 909.9999999999927,9.947598300641403e-14 905.0149247851215,-95.12090157356377 890.1143166677559,-189.19963864415934 865.4614298285827,-281.2054648811997 831.3263664547601,-370.13034519897496 788.0831174438329,-454.9999999999961 736.2054648811962,-534.884579586146 676.2617911844234,-608.9088517865557 608.9088517865562,-676.2617911844229 534.8845795861464,-736.2054648811958 454.9999999999966,-788.0831174438323 370.13034519897553,-831.3263664547595 281.20546488120027,-865.4614298285821 189.19963864415993,-890.1143166677552 95.12090157356444,-905.0149247851207 6.394884621840902e-13,-909.9999999999919 -95.12090157356315,-905.0149247851207 -189.19963864415863,-890.1143166677552 -281.20546488119896,-865.4614298285821 -370.13034519897417,-831.3263664547595 -454.9999999999952,-788.0831174438323 -534.884579586145,-736.2054648811958 -608.9088517865548,-676.2617911844229 -676.2617911844219,-608.9088517865558 -736.2054648811948,-534.8845795861462 -788.0831174438313,-454.9999999999964 -831.3263664547585,-370.1303451989754 -865.4614298285811,-281.20546488120027" stroke="#a0522d" stroke-linecap="round" stroke-linejoin="round" stroke-width="15.0"/><polyline fill="none" points="-865.4614298285811,-281.20546488120027 -890.1143166677542,-189.19963864416002 -905.0149247851197,-95.12090157356462 -909.9999999999909,-9.094947017729282e-13 -905.0149247851197,95.12090157356279 -890.1143166677542,189.1996386441582 -865.4614298285811,281.20546488119845 -831.3263664547585,370.1303451989736 -788.0831174438313,454.99999999999454 -736.2054648811948,534.8845795861442 -676.261791184422,608.9088517865539 -608.9088517865549,676.261791184421 -534.8845795861453,736.2054648811937 -454.99999999999557,788.0831174438302 -370.1303451989747,831.3263664547575 -281.2054648811996,865.4614298285801 -189.1996386441594,890.1143166677532 -95.12090157356405,905.0149247851186 -3.979039320256561e-13,909.9999999999899" stroke="#a0522d" stroke-linecap="round" stroke-linejoin="round" stroke-width="15.0"/><polyline fill="none" points="-1.7890451247919518e-13,984.9999999999897 102.96053631863738,979.6040669377389 204.79301545549058,963.4753867227885 304.38173945931976,936.7906685507164 400.6355934296587,899.8422757779524 492.4999999999945,853.0350227276631 578.9684735080796,796.8817394593149 659.093647263468,731.9976530952257 731.9976530952252,659.0936472634685 796.8817394593144,578.96847350808 853.0350227276626,492.499999999995 899.842275777952,400.63559342965925 936.790668550716,304.38173945932033 963.475386722788,204.79301545549117 979.6040669377386,102.96053631863803 984.9999999999893,5.258016244624741e-13 979.6040669377386,-102.96053631863698 963.4753867227881,-204.79301545549012 936.7906685507162,-304.3817394593193 899.8422757779523,-400.63559342965823 853.0350227276631,-492.499999999994 796.8817394593149,-578.968473508079 731.9976530952257,-659.0936472634675 659.0936472634686,-731.9976530952247 578.9684735080803,-796.8817394593138 492.4999999999952,-853.0350227276621 400.6355934296595,-899.8422757779514 304.3817394593206,-936.7906685507154 204.7930154554915,-963.4753867227874 102.96053631863842,-979.604066937738 9.379164112033322e-13,-984.9999999999887 -102.96053631863654,-979.604066937738 -204.79301545548964,-963.4753867227876 -304.38173945931874,-936.7906685507156 -400.6355934296576,-899.8422757779517 -492.49999999999335,-853.0350227276625 -578.9684735080784,-796.8817394593143 -659.0936472634669,-731.9976530952252 -731.997653095224,-659.0936472634681 -796.8817394593132,-578.9684735080798 -853.0350227276614,-492.4999999999948 -899.8422757779507,-400.63559342965914 -936.7906685507147,-304.38173945932033" stroke="#808080" stroke-linecap="round" stroke-linejoin="round" stroke-width="15.0"/><polyline fill="none" points="-936.7906685507147,-304.38173945932033 -963.4753867227868,-204.7930154554913 -979.6040669377373,-102.96053631863823 -984.9999999999881,-7.958078640513122e-13 -979.6040669377375,102.96053631863664 -963.475386722787,204.7930154554897 -936.790668550715,304.38173945931874 -899.8422757779512,400.63559342965755 -853.035022727662,492.49999999999324 -796.8817394593138,578.9684735080782 -731.9976530952248,659.0936472634666 -659.0936472634678,731.9976530952237 -578.9684735080796,796.8817394593128 -492.49999999999466,853.035022727661 -400.635593429659,899.8422757779504 -304.3817394593202,936.7906685507144 -204.7930154554912,963.4753867227864 -102.96053631863819,979.604066937737 -7.958078640513122e-13,984.9999999999877" stroke="#808080" stroke-linecap="round" stroke-linejoin="round" stroke-width="15.0"/><line fill="none" stroke="none" stroke-linecap="round" stroke-width="2.0" x1="0.0" x2="0.0" y1="0.0" y2="0.0"/><polygon fill="none" fill-rule="evenodd" points="0.0,0.0 0.0,0.0 0.0,0.0" stroke-linejoin="round"/></svg>