<?xml version="1.0" ?><!DOCTYPE svg  PUBLIC '-//W3C//DTD SVG 1.1//EN'  'http://www.w3.org/Graphics/SVG/1.1/DTD/svg11.dtd'><svg height="1631.000" viewBox="-815.000 -815.000 1631.000 1631.000" width="1631.000" xmlns="http://www.w3.org/2000/svg"><line fill="none" stroke="none" stroke-linecap="round" stroke-width="2.0" x1="0.0" x2="0.0" y1="0.0" y2="0.0"/><text fill="#000" font-family="Liberation Sans" font-size="98.0pt" font-weight="bold" stroke-width="0.0" text-anchor="middle" x="-0.9999999999999925" y="95">Echobot</text><text fill="#000" font-family="Liberation Sans" font-size="80.0pt" font-weight="bold" stroke-width="0.0" text-anchor="middle" x="-0.9999999999998964" y="315">2019</text><polyline fill="none" points="4.353619370968841e-13,790.0 82.57748598144669,785.6722973409359 164.25023574603028,772.7366045797063 244.12342555620884,751.3346478731711 321.3219480298825,721.7009115376544 395.0000000000003,684.1600689897061 464.350349311054,639.1234255562081 528.6131790234981,587.084412127141 587.0844121271415,528.6131790234975 639.1234255562084,464.3503493110533 684.1600689897064,394.99999999999955 721.7009115376544,321.3219480298817 751.334647873171,244.12342555620802 772.7366045797061,164.2502357460295 785.6722973409355,82.57748598144592 789.9999999999995,-2.5579538487363607e-13 785.6722973409354,-82.57748598144642 772.7366045797058,-164.25023574602997 751.3346478731706,-244.12342555620847 721.700911537654,-321.32194802988204 684.1600689897058,-394.9999999999998 639.1234255562077,-464.35034931105344 587.0844121271407,-528.6131790234975 528.6131790234973,-587.0844121271409 464.35034931105315,-639.1234255562078 394.99999999999943,-684.1600689897058 321.3219480298817,-721.7009115376538 244.1234255562081,-751.3346478731703 164.25023574602963,-772.7366045797054 82.57748598144613,-785.6722973409348 4.263256414560601e-14,-789.9999999999989 -82.57748598144605,-785.6722973409347 -164.25023574602952,-772.7366045797053 -244.12342555620793,-751.3346478731702 -321.32194802988147,-721.7009115376536 -394.9999999999991,-684.1600689897055 -464.3503493110527,-639.1234255562074 -528.6131790234967,-587.0844121271405 -587.08441212714,-528.6131790234971 -639.1234255562068,-464.350349311053 -684.1600689897048,-394.9999999999994 -721.7009115376528,-321.3219480298817 -751.3346478731693,-244.1234255562082" stroke="#000" stroke-linecap="round" stroke-linejoin="round" stroke-width="15.0"/><polyline fill="none" points="-751.3346478731693,-244.1234255562082 -772.7366045797044,-164.2502357460298 -785.6722973409338,-82.57748598144639 -789.9999999999978,-3.836930773104541e-13 -785.6722973409337,82.57748598144562 -772.7366045797042,164.250235746029 -751.3346478731692,244.12342555620734 -721.7009115376526,321.3219480298808 -684.1600689897045,394.9999999999984 -639.1234255562066,464.35034931105196 -587.0844121271397,528.613179023496 -528.6131790234964,587.0844121271392 -464.35034931105236,639.123425556206 -394.9999999999988,684.1600689897039 -321.32194802988124,721.7009115376519 -244.1234255562078,751.3346478731684 -164.2502357460295,772.7366045797033 -82.57748598144613,785.6722973409328 -1.8474111129762605e-13,789.9999999999968" stroke="#000" stroke-linecap="round" stroke-linejoin="round" stroke-width="15.0"/><line fill="none" stroke="none" stroke-linecap="round" stroke-width="2.0" x1="0.0" x2="0.0" y1="0.0" y2="0.0"/><polygon fill="none" fill-rule="evenodd" points="0.0,0.0 0.0,0.0 0.0,0.0" stroke-linejoin="round"/></svg>