<?xml version="1.0" ?><!DOCTYPE svg  PUBLIC '-//W3C//DTD SVG 1.1//EN'  'http://www.w3.org/Graphics/SVG/1.1/DTD/svg11.dtd'><svg height="1391.000" viewBox="-695.000 -695.000 1391.000 1391.000" width="1391.000" xmlns="http://www.w3.org/2000/svg"><line fill="none" stroke="none" stroke-linecap="round" stroke-width="2.0" x1="0.0" x2="0.0" y1="0.0" y2="0.0"/><text fill="#000" font-family="Liberation Sans" font-size="94.0pt" font-weight="bold" stroke-width="0.0" text-anchor="middle" x="-0.9999999999999943" y="66">Hajime</text><text fill="#000" font-family="Liberation Sans" font-size="80.0pt" font-weight="bold" stroke-width="0.0" text-anchor="middle" x="-0.9999999999999086" y="275">2016</text><polyline fill="none" points="3.69231009942927e-13,670.0 70.03407038932819,666.3296698967431 139.3008328478991,655.3588924916497 207.04138623121509,637.2078659177528 272.5135508607864,612.0754566205425 335.00000000000017,580.2370205355737 393.8161190359571,542.0413862312146 448.31750626043504,497.9070330698539 497.9070330698541,448.31750626043475 542.0413862312147,393.8161190359567 580.2370205355737,334.9999999999997 612.0754566205424,272.51355086078587 637.2078659177525,207.04138623121452 655.3588924916494,139.30083284789856 666.3296698967426,70.0340703893277 669.9999999999994,-7.105427357601002e-14 666.3296698967425,-70.03407038932782 655.3588924916492,-139.30083284789868 637.2078659177522,-207.04138623121463 612.0754566205419,-272.5135508607859 580.2370205355732,-334.99999999999966 542.041386231214,-393.81611903595655 497.90703306985336,-448.31750626043447 448.31750626043424,-497.9070330698535 393.81611903595626,-542.0413862312141 334.9999999999993,-580.2370205355732 272.51355086078553,-612.0754566205418 207.04138623121426,-637.207865917752 139.30083284789833,-655.3588924916488 70.03407038932752,-666.3296698967421 -1.7053025658242404e-13,-669.9999999999989 -70.03407038932785,-666.329669896742 -139.30083284789862,-655.3588924916486 -207.0413862312145,-637.2078659177517 -272.5135508607857,-612.0754566205414 -334.99999999999943,-580.2370205355728 -393.81611903595626,-542.0413862312138 -448.31750626043413,-497.90703306985324 -497.9070330698531,-448.3175062604342 -542.0413862312137,-393.81611903595626 -580.2370205355727,-334.9999999999994 -612.0754566205413,-272.51355086078564 -637.2078659177515,-207.04138623121446" stroke="#000" stroke-linecap="round" stroke-linejoin="round" stroke-width="15.0"/><polyline fill="none" points="-637.2078659177515,-207.04138623121446 -655.3588924916484,-139.30083284789862 -666.3296698967416,-70.03407038932788 -669.9999999999984,-2.5579538487363607e-13 -666.3296698967415,70.03407038932735 -655.3588924916481,139.30083284789805 -637.2078659177513,207.04138623121383 -612.075456620541,272.513550860785 -580.2370205355724,334.99999999999864 -542.0413862312133,393.8161190359554 -497.9070330698528,448.3175062604332 -448.3175062604338,497.90703306985216 -393.8161190359559,542.0413862312126 -334.9999999999991,580.2370205355716 -272.5135508607854,612.0754566205401 -207.04138623121426,637.2078659177503 -139.30083284789848,655.3588924916471 -70.0340703893278,666.3296698967404 -2.2737367544323206e-13,669.9999999999972" stroke="#000" stroke-linecap="round" stroke-linejoin="round" stroke-width="15.0"/><line fill="none" stroke="none" stroke-linecap="round" stroke-width="2.0" x1="0.0" x2="0.0" y1="0.0" y2="0.0"/><polygon fill="none" fill-rule="evenodd" points="0.0,0.0 0.0,0.0 0.0,0.0" stroke-linejoin="round"/></svg>