<?xml version="1.0" ?><!DOCTYPE svg  PUBLIC '-//W3C//DTD SVG 1.1//EN'  'http://www.w3.org/Graphics/SVG/1.1/DTD/svg11.dtd'><svg height="1601.000" viewBox="-800.000 -800.000 1601.000 1601.000" width="1601.000" xmlns="http://www.w3.org/2000/svg"><line fill="none" stroke="none" stroke-linecap="round" stroke-width="2.0" x1="0.0" x2="0.0" y1="0.0" y2="0.0"/><text fill="#000" font-family="Liberation Sans" font-size="90.0pt" font-weight="bold" stroke-width="0.0" text-anchor="middle" x="-0.9999999999999962" y="37">Hydra</text><text fill="#000" font-family="Liberation Sans" font-size="80.0pt" font-weight="bold" stroke-width="0.0" text-anchor="middle" x="-0.999999999999921" y="235">2008</text><polyline fill="none" points="3.031000827889699e-13,550.0 57.49065479720971,546.9870424525503 114.35142994976792,537.981180403593 169.95934690622136,523.0810839623343 223.70515369169036,502.4500017034303 275.0000000000002,476.313972081441 323.2818887608604,444.95934690622084 368.02183349737214,408.7296540125666 408.7296540125669,368.02183349737174 444.9593469062211,323.28188876085994 476.31397208144125,274.9999999999997 502.4500017034304,223.70515369168984 523.0810839623343,169.95934690622084 537.9811804035929,114.35142994976744 546.9870424525501,57.49065479720926 549.9999999999998,-9.947598300641403e-14 546.9870424525501,-57.49065479720945 537.9811804035928,-114.35142994976762 523.0810839623341,-169.95934690622101 502.45000170343013,-223.70515369169 476.3139720814409,-274.9999999999998 444.95934690622073,-323.2818887608599 408.72965401256647,-368.0218334973716 368.0218334973717,-408.7296540125663 323.28188876085994,-444.95934690622045 274.9999999999998,-476.3139720814405 223.70515369168993,-502.4500017034297 169.95934690622096,-523.0810839623335 114.3514299497676,-537.9811804035921 57.49065479720948,-546.9870424525493 1.7763568394002505e-13,-549.999999999999 -57.49065479720912,-546.9870424525493 -114.35142994976722,-537.981180403592 -169.95934690622056,-523.0810839623334 -223.70515369168947,-502.45000170342945 -274.9999999999992,-476.3139720814402 -323.2818887608593,-444.9593469062201 -368.021833497371,-408.7296540125659 -408.7296540125657,-368.0218334973712 -444.9593469062198,-323.2818887608595 -476.3139720814399,-274.9999999999994 -502.45000170342905,-223.70515369168962 -523.081083962333,-169.95934690622073" stroke="#000" stroke-linecap="round" stroke-linejoin="round" stroke-width="15.0"/><polyline fill="none" points="-523.081083962333,-169.95934690622073 -537.9811804035916,-114.35142994976744 -546.9870424525487,-57.490654797209366 -549.9999999999984,-1.2079226507921703e-13 -546.9870424525487,57.49065479720912 -537.9811804035915,114.35142994976717 -523.0810839623329,169.95934690622045 -502.45000170342894,223.7051536916893 -476.3139720814398,274.99999999999903 -444.9593469062197,323.2818887608591 -408.72965401256556,368.0218334973707 -368.02183349737084,408.7296540125654 -323.28188876085915,444.9593469062195 -274.9999999999991,476.31397208143954 -223.70515369168936,502.45000170342865 -169.9593469062205,523.0810839623325 -114.35142994976724,537.9811804035911 -57.49065479720921,546.9870424525483 -1.4210854715202004e-14,549.999999999998" stroke="#000" stroke-linecap="round" stroke-linejoin="round" stroke-width="15.0"/><polyline fill="none" points="2.767946904201656e-13,624.9999999999977 65.33028954228344,621.5761846051686 129.94480676109936,611.3422504586263 193.13562148434164,594.4103226844687 254.2104019223744,570.9659110266233 312.499999999999,541.265877365272 367.3657826827945,505.6356214843401 418.2066289742849,464.4655159233695 464.4655159233697,418.2066289742846 505.6356214843403,367.36578268279413 541.2658773652721,312.49999999999864 570.9659110266233,254.210401922374 594.4103226844686,193.13562148434124 611.342250458626,129.94480676109896 621.5761846051682,65.33028954228308 624.9999999999974,-2.842170943040401e-14 621.5761846051682,-65.33028954228314 611.3422504586259,-129.944806761099 594.4103226844684,-193.13562148434124 570.9659110266231,-254.21040192237393 541.2658773652718,-312.4999999999985 505.6356214843399,-367.36578268279396 464.4655159233693,-418.20662897428434 418.2066289742845,-464.4655159233691 367.3657826827941,-505.6356214843396 312.49999999999864,-541.2658773652714 254.21040192237407,-570.9659110266226 193.1356214843414,-594.4103226844679 129.9448067610992,-611.3422504586254 65.33028954228337,-621.5761846051676 3.126388037344441e-13,-624.9999999999967 -65.33028954228274,-621.5761846051676 -129.94480676109853,-611.3422504586252 -193.13562148434073,-594.4103226844678 -254.21040192237336,-570.9659110266225 -312.4999999999979,-541.2658773652713 -367.3657826827933,-505.6356214843395 -418.20662897428366,-464.46551592336897 -464.4655159233684,-418.20662897428423 -505.6356214843389,-367.36578268279385 -541.2658773652707,-312.49999999999847 -570.9659110266219,-254.21040192237396 -594.4103226844672,-193.13562148434136" stroke="#f00" stroke-linecap="round" stroke-linejoin="round" stroke-width="15.0"/><polyline fill="none" points="-594.4103226844672,-193.13562148434136 -611.3422504586247,-129.9448067610992 -621.5761846051669,-65.33028954228342 -624.999999999996,-4.263256414560601e-13 -621.5761846051669,65.33028954228257 -611.3422504586247,129.94480676109833 -594.4103226844672,193.13562148434048 -570.9659110266219,254.21040192237305 -541.2658773652707,312.49999999999756 -505.63562148433897,367.3657826827929 -464.4655159233685,418.2066289742832 -418.20662897428383,464.4655159233679 -367.3657826827935,505.63562148433834 -312.4999999999982,541.2658773652701 -254.21040192237373,570.9659110266213 -193.1356214843412,594.4103226844665 -129.94480676109907,611.3422504586239 -65.33028954228338,621.5761846051661 -4.405364961712621e-13,624.9999999999952" stroke="#f00" stroke-linecap="round" stroke-linejoin="round" stroke-width="15.0"/><polyline fill="none" points="8.65776695647726e-14,699.9999999999949 73.16992428735696,696.1653267577863 145.5381835724305,684.7033205136589 216.31189606246164,665.7395614066025 284.71565015305805,639.4818203498158 349.9999999999974,606.2177826491026 411.4496766047281,566.311896062459 468.39142445119717,520.2013778341721 520.2013778341719,468.39142445119734 566.3118960624588,411.4496766047282 606.2177826491023,349.9999999999975 639.4818203498156,284.71565015305816 665.7395614066022,216.31189606246176 684.7033205136585,145.53818357243065 696.1653267577858,73.16992428735713 699.9999999999944,2.984279490192421e-13 696.1653267577858,-73.16992428735652 684.7033205136585,-145.53818357243003 665.7395614066022,-216.31189606246107 639.4818203498155,-284.7156501530575 606.2177826491022,-349.9999999999968 566.3118960624587,-411.4496766047275 520.2013778341718,-468.39142445119654 468.39142445119705,-520.2013778341714 411.449676604728,-566.3118960624582 349.9999999999973,-606.2177826491018 284.71565015305805,-639.481820349815 216.3118960624617,-665.7395614066018 145.53818357243068,-684.703320513658 73.16992428735722,-696.1653267577854 4.547473508864641e-13,-699.999999999994 -73.16992428735631,-696.1653267577854 -145.53818357242977,-684.7033205136581 -216.3118960624608,-665.7395614066019 -284.71565015305714,-639.4818203498153 -349.99999999999636,-606.217782649102 -411.44967660472696,-566.3118960624586 -468.391424451196,-520.2013778341718 -520.2013778341707,-468.3914244511971 -566.3118960624574,-411.4496766047281 -606.2177826491009,-349.9999999999975 -639.4818203498141,-284.7156501530583 -665.7395614066007,-216.311896062462" stroke="#228b22" stroke-linecap="round" stroke-linejoin="round" stroke-width="15.0"/><polyline fill="none" points="-665.7395614066007,-216.311896062462 -684.703320513657,-145.53818357243105 -696.1653267577842,-73.16992428735766 -699.9999999999928,-9.521272659185342e-13 -696.1653267577842,73.16992428735574 -684.703320513657,145.53818357242912 -665.7395614066007,216.31189606246005 -639.4818203498141,284.71565015305634 -606.2177826491009,349.99999999999557 -566.3118960624574,411.44967660472616 -520.2013778341707,468.3914244511951 -468.391424451196,520.2013778341698 -411.449676604727,566.3118960624565 -349.9999999999965,606.2177826491 -284.7156501530573,639.4818203498132 -216.31189606246107,665.7395614065998 -145.53818357243017,684.7033205136561 -73.16992428735684,696.1653267577834 -1.8474111129762605e-13,699.999999999992" stroke="#228b22" stroke-linecap="round" stroke-linejoin="round" stroke-width="15.0"/><polyline fill="none" points="-1.4076243367652412e-13,774.9999999999918 81.00955903243043,770.7544689104037 161.1315603837616,758.0643905686914 239.48817064058153,737.0688001287363 315.22089838374166,707.9977296730083 387.49999999999574,671.1696879329329 455.53357052666166,626.9881706405777 518.5762199281095,575.9372397449745 575.9372397449742,518.5762199281097 626.9881706405774,455.53357052666195 671.1696879329327,387.499999999996 707.997729673008,315.220898383742 737.068800128736,239.48817064058193 758.0643905686911,161.13156038376204 770.7544689104035,81.00955903243089 774.9999999999916,3.552713678800501e-13 770.7544689104035,-81.00955903243018 758.0643905686912,-161.13156038376133 737.0688001287361,-239.48817064058122 707.9977296730082,-315.2208983837413 671.1696879329329,-387.49999999999534 626.9881706405778,-455.53357052666126 575.9372397449747,-518.576219928109 518.5762199281099,-575.9372397449738 455.53357052666223,-626.988170640577 387.49999999999636,-671.1696879329322 315.22089838374234,-707.9977296730076 239.48817064058233,-737.0688001287356 161.13156038376246,-758.0643905686907 81.00955903243134,-770.754468910403 8.384404281969182e-13,-774.9999999999911 -81.00955903242966,-770.754468910403 -161.13156038376079,-758.0643905686908 -239.48817064058065,-737.0688001287357 -315.2208983837407,-707.9977296730077 -387.4999999999947,-671.1696879329324 -455.5335705266606,-626.9881706405773 -518.5762199281083,-575.9372397449742 -575.9372397449731,-518.5762199281096 -626.9881706405763,-455.53357052666195 -671.1696879329315,-387.49999999999613 -707.9977296730069,-315.22089838374217 -737.0688001287349,-239.48817064058215" stroke="#ffc0cb" stroke-linecap="round" stroke-linejoin="round" stroke-width="15.0"/><polyline fill="none" points="-737.0688001287349,-239.48817064058215 -758.06439056869,-161.13156038376235 -770.7544689104024,-81.00955903243127 -774.9999999999905,-7.958078640513122e-13 -770.7544689104024,81.00955903242968 -758.0643905686901,161.13156038376076 -737.068800128735,239.4881706405806 -707.997729673007,315.2208983837406 -671.1696879329318,387.49999999999454 -626.9881706405766,455.5335705266604 -575.9372397449736,518.5762199281081 -518.5762199281089,575.9372397449729 -455.53357052666126,626.9881706405761 -387.49999999999545,671.1696879329313 -315.22089838374154,707.9977296730067 -239.4881706405816,737.0688001287347 -161.13156038376178,758.0643905686898 -81.00955903243073,770.7544689104021 -2.984279490192421e-13,774.9999999999902" stroke="#ffc0cb" stroke-linecap="round" stroke-linejoin="round" stroke-width="15.0"/><line fill="none" stroke="none" stroke-linecap="round" stroke-width="2.0" x1="0.0" x2="0.0" y1="0.0" y2="0.0"/><polygon fill="none" fill-rule="evenodd" points="0.0,0.0 0.0,0.0 0.0,0.0" stroke-linejoin="round"/></svg>