<?xml version="1.0" ?><!DOCTYPE svg  PUBLIC '-//W3C//DTD SVG 1.1//EN'  'http://www.w3.org/Graphics/SVG/1.1/DTD/svg11.dtd'><svg height="1451.000" viewBox="-725.000 -725.000 1451.000 1451.000" width="1451.000" xmlns="http://www.w3.org/2000/svg"><line fill="none" stroke="none" stroke-linecap="round" stroke-width="2.0" x1="0.0" x2="0.0" y1="0.0" y2="0.0"/><text fill="#000" font-family="Liberation Sans" font-size="95.0pt" font-weight="bold" stroke-width="0.0" text-anchor="middle" x="-0.9999999999999939" y="73">NewAidra</text><text fill="#000" font-family="Liberation Sans" font-size="80.0pt" font-weight="bold" stroke-width="0.0" text-anchor="middle" x="-0.9999999999999056" y="285">2016</text><polyline fill="none" points="3.8576374173141627e-13,700.0 73.1699242873578,696.1653267577913 145.53818357243188,684.7033205136638 216.31189606246352,665.7395614066073 284.71565015306044,639.4818203498204 350.0000000000002,606.2177826491068 411.44967660473134,566.3118960624629 468.3914244512008,520.2013778341757 520.2013778341759,468.39142445120046 566.3118960624631,411.4496766047309 606.2177826491069,349.9999999999997 639.4818203498204,284.71565015305987 665.7395614066072,216.31189606246295 684.7033205136636,145.53818357243134 696.1653267577909,73.16992428735729 699.9999999999995,-7.105427357601002e-14 696.1653267577908,-73.16992428735743 684.7033205136634,-145.53818357243148 665.7395614066069,-216.31189606246306 639.4818203498199,-284.7156501530599 606.2177826491063,-349.99999999999966 566.3118960624624,-411.4496766047307 520.2013778341752,-468.3914244512002 468.3914244512,-520.2013778341753 411.4496766047305,-566.3118960624624 349.9999999999994,-606.2177826491062 284.7156501530596,-639.4818203498197 216.31189606246272,-665.7395614066065 145.53818357243117,-684.7033205136629 73.16992428735719,-696.1653267577902 -9.947598300641403e-14,-699.9999999999989 -73.16992428735739,-696.1653267577901 -145.53818357243136,-684.7033205136627 -216.31189606246286,-665.7395614066062 -284.71565015305964,-639.4818203498194 -349.9999999999993,-606.2177826491059 -411.44967660473037,-566.3118960624621 -468.3914244511998,-520.201377834175 -520.2013778341749,-468.3914244511999 -566.311896062462,-411.4496766047305 -606.2177826491057,-349.99999999999943 -639.4818203498191,-284.71565015305976 -665.739561406606,-216.31189606246298" stroke="#000" stroke-linecap="round" stroke-linejoin="round" stroke-width="15.0"/><polyline fill="none" points="-665.739561406606,-216.31189606246298 -684.7033205136623,-145.53818357243148 -696.1653267577897,-73.16992428735757 -699.9999999999983,-3.552713678800501e-13 -696.1653267577896,73.16992428735685 -684.7033205136622,145.53818357243074 -665.7395614066058,216.31189606246218 -639.481820349819,284.7156501530589 -606.2177826491055,349.9999999999985 -566.3118960624618,411.4496766047295 -520.2013778341747,468.3914244511989 -468.39142445119955,520.2013778341739 -411.44967660473014,566.311896062461 -349.99999999999915,606.2177826491046 -284.7156501530595,639.481820349818 -216.3118960624628,665.7395614066047 -145.53818357243136,684.7033205136611 -73.16992428735752,696.1653267577884 -3.552713678800501e-13,699.999999999997" stroke="#000" stroke-linecap="round" stroke-linejoin="round" stroke-width="15.0"/><line fill="none" stroke="none" stroke-linecap="round" stroke-width="2.0" x1="0.0" x2="0.0" y1="0.0" y2="0.0"/><polygon fill="none" fill-rule="evenodd" points="0.0,0.0 0.0,0.0 0.0,0.0" stroke-linejoin="round"/></svg>