<?xml version="1.0" ?><!DOCTYPE svg  PUBLIC '-//W3C//DTD SVG 1.1//EN'  'http://www.w3.org/Graphics/SVG/1.1/DTD/svg11.dtd'><svg height="1331.000" viewBox="-665.000 -665.000 1331.000 1331.000" width="1331.000" xmlns="http://www.w3.org/2000/svg"><line fill="none" stroke="none" stroke-linecap="round" stroke-width="2.0" x1="0.0" x2="0.0" y1="0.0" y2="0.0"/><text fill="#000" font-family="Liberation Sans" font-size="93.0pt" font-weight="bold" stroke-width="0.0" text-anchor="middle" x="-0.9999999999999948" y="58">Remaiten</text><text fill="#000" font-family="Liberation Sans" font-size="80.0pt" font-weight="bold" stroke-width="0.0" text-anchor="middle" x="-0.9999999999999117" y="265">2016</text><polyline fill="none" points="3.5269827815443773e-13,640.0 66.89821649129857,636.4940130356949 133.0634821233663,626.0144644696355 197.77087639996665,608.6761704288982 260.3114515685124,584.6690928912644 320.0000000000002,554.2562584220406 376.18256146718295,517.7708763999661 428.24358806966933,475.61268830553206 475.6126883055323,428.243588069669 517.7708763999663,376.18256146718255 554.2562584220406,319.9999999999998 584.6690928912643,260.3114515685119 608.676170428898,197.77087639996617 626.0144644696353,133.06348212336584 636.4940130356946,66.89821649129814 639.9999999999997,-1.4210854715202004e-14 636.4940130356946,-66.89821649129817 626.0144644696352,-133.06348212336587 608.6761704288979,-197.77087639996617 584.6690928912642,-260.31145156851187 554.2562584220403,-319.99999999999966 517.7708763999659,-376.1825614671824 475.6126883055319,-428.2435880696687 428.2435880696689,-475.61268830553166 376.18256146718244,-517.7708763999656 319.9999999999997,-554.2562584220399 260.3114515685119,-584.6690928912636 197.77087639996623,-608.6761704288973 133.06348212336596,-626.0144644696345 66.89821649129831,-636.4940130356938 2.2737367544323206e-13,-639.9999999999989 -66.89821649129786,-636.4940130356938 -133.06348212336547,-626.0144644696345 -197.7708763999657,-608.6761704288972 -260.3114515685113,-584.6690928912635 -319.99999999999903,-554.2562584220398 -376.1825614671817,-517.7708763999655 -428.243588069668,-475.6126883055315 -475.6126883055309,-428.24358806966853 -517.7708763999648,-376.1825614671822 -554.2562584220391,-319.99999999999955 -584.6690928912628,-260.3114515685118 -608.6761704288964,-197.7708763999662" stroke="#000" stroke-linecap="round" stroke-linejoin="round" stroke-width="15.0"/><polyline fill="none" points="-608.6761704288964,-197.7708763999662 -626.0144644696336,-133.063482123366 -636.4940130356929,-66.89821649129841 -639.999999999998,-3.836930773104541e-13 -636.4940130356929,66.89821649129763 -626.0144644696336,133.0634821233652 -608.6761704288963,197.77087639996535 -584.6690928912626,260.3114515685109 -554.2562584220389,319.9999999999986 -517.7708763999645,376.1825614671812 -475.61268830553064,428.24358806966745 -428.24358806966774,475.61268830553036 -376.1825614671814,517.7708763999642 -319.9999999999988,554.2562584220384 -260.31145156851113,584.6690928912622 -197.77087639996557,608.6761704288957 -133.06348212336542,626.0144644696329 -66.8982164912979,636.4940130356922 7.105427357601002e-14,639.9999999999973" stroke="#000" stroke-linecap="round" stroke-linejoin="round" stroke-width="15.0"/><line fill="none" stroke="none" stroke-linecap="round" stroke-width="2.0" x1="0.0" x2="0.0" y1="0.0" y2="0.0"/><polygon fill="none" fill-rule="evenodd" points="0.0,0.0 0.0,0.0 0.0,0.0" stroke-linejoin="round"/></svg>