<?xml version="1.0" ?><!DOCTYPE svg  PUBLIC '-//W3C//DTD SVG 1.1//EN'  'http://www.w3.org/Graphics/SVG/1.1/DTD/svg11.dtd'><svg height="1421.000" viewBox="-710.000 -710.000 1421.000 1421.000" width="1421.000" xmlns="http://www.w3.org/2000/svg"><line fill="none" stroke="none" stroke-linecap="round" stroke-width="2.0" x1="0.0" x2="0.0" y1="0.0" y2="0.0"/><text fill="#000" font-family="Liberation Sans" font-size="92.0pt" font-weight="bold" stroke-width="0.0" text-anchor="middle" x="-0.9999999999999952" y="52">XOR</text><text fill="#000" font-family="Liberation Sans" font-size="80.0pt" font-weight="bold" stroke-width="0.0" text-anchor="middle" x="-0.9999999999999147" y="255">2014</text><polyline fill="none" points="3.3616554636594846e-13,610.0 63.76236259326894,606.6583561746467 126.8261313988335,596.6700364476213 188.5003665687182,580.1444749400436 248.10935227623835,557.2627291619864 305.00000000000017,528.2754963085074 358.5490038984087,493.5003665687177 408.16966987890356,453.31834354121025 453.3183435412105,408.1696698789033 493.5003665687179,358.5490038984084 528.2754963085074,304.9999999999998 557.2627291619863,248.10935227623793 580.1444749400433,188.50036656871777 596.670036447621,126.82613139883307 606.6583561746462,63.76236259326855 609.9999999999994,-7.105427357601002e-15 606.6583561746461,-63.762362593268556 596.6700364476208,-126.82613139883307 580.144474940043,-188.5003665687177 557.2627291619858,-248.10935227623781 528.2754963085068,-304.9999999999996 493.5003665687172,-358.5490038984081 453.31834354120974,-408.16966987890294 408.1696698789028,-453.3183435412098 358.54900389840793,-493.50036656871714 304.9999999999994,-528.2754963085067 248.1093522762376,-557.2627291619856 188.50036656871748,-580.1444749400426 126.82613139883284,-596.6700364476203 63.76236259326838,-606.6583561746455 -1.1368683772161603e-13,-609.9999999999987 -63.7623625932686,-606.6583561746454 -126.82613139883304,-596.6700364476201 -188.50036656871762,-580.1444749400423 -248.10935227623767,-557.2627291619851 -304.9999999999994,-528.2754963085061 -358.5490038984078,-493.5003665687166 -408.1696698789026,-453.3183435412092 -453.3183435412094,-408.1696698789023 -493.5003665687167,-358.54900389840753 -528.2754963085063,-304.99999999999903 -557.2627291619851,-248.1093522762373 -580.1444749400422,-188.50036656871725" stroke="#000" stroke-linecap="round" stroke-linejoin="round" stroke-width="15.0"/><polyline fill="none" points="-580.1444749400422,-188.50036656871725 -596.6700364476199,-126.82613139883269 -606.6583561746451,-63.762362593268286 -609.9999999999983,1.4210854715202004e-13 -606.6583561746451,63.76236259326856 -596.6700364476197,126.82613139883294 -580.144474940042,188.50036656871748 -557.2627291619849,248.10935227623747 -528.275496308506,304.99999999999915 -493.50036656871646,358.5490038984076 -453.3183435412091,408.1696698789023 -408.16966987890225,453.3183435412091 -358.5490038984075,493.5003665687164 -304.99999999999903,528.2754963085059 -248.10935227623736,557.2627291619848 -188.50036656871737,580.1444749400418 -126.82613139883284,596.6700364476195 -63.76236259326849,606.6583561746447 -1.1368683772161603e-13,609.999999999998" stroke="#000" stroke-linecap="round" stroke-linejoin="round" stroke-width="15.0"/><polyline fill="none" points="3.0336698070050153e-13,684.9999999999975 71.60199733834266,681.2474983272647 142.4195082101649,670.0311065026543 211.67664114683848,651.4737136621777 278.61460050692233,625.7786384851792 342.4999999999989,593.2274015923381 402.63289782034275,554.1766411468367 458.3544653558163,509.0542054520129 509.0542054520132,458.35446535581593 554.1766411468369,402.63289782034235 593.2274015923382,342.4999999999985 625.7786384851792,278.61460050692193 651.4737136621776,211.67664114683805 670.0311065026541,142.4195082101645 681.2474983272643,71.6019973383423 684.999999999997,-0.0 681.2474983272642,-71.60199733834229 670.0311065026539,-142.41950821016445 651.4737136621773,-211.67664114683794 625.7786384851788,-278.61460050692176 593.2274015923379,-342.4999999999983 554.1766411468366,-402.63289782034207 509.05420545201287,-458.35446535581553 458.35446535581593,-509.0542054520124 402.6328978203424,-554.1766411468361 342.49999999999864,-593.2274015923374 278.6146005069221,-625.7786384851784 211.67664114683828,-651.4737136621768 142.4195082101648,-670.0311065026533 71.60199733834266,-681.2474983272635 4.121147867408581e-13,-684.9999999999962 -71.60199733834182,-681.2474983272634 -142.41950821016394,-670.0311065026531 -211.67664114683737,-651.4737136621765 -278.61460050692114,-625.778638485178 -342.4999999999976,-593.2274015923371 -402.6328978203413,-554.1766411468358 -458.3544653558148,-509.05420545201207 -509.0542054520117,-458.3544653558152 -554.1766411468353,-402.6328978203417 -593.2274015923366,-342.499999999998 -625.7786384851776,-278.61460050692153 -651.473713662176,-211.6766411468378" stroke="#808080" stroke-linecap="round" stroke-linejoin="round" stroke-width="15.0"/><polyline fill="none" points="-651.473713662176,-211.6766411468378 -670.0311065026525,-142.4195082101644 -681.2474983272629,-71.60199733834231 -684.9999999999956,-1.4210854715202004e-13 -681.2474983272629,71.60199733834203 -670.0311065026525,142.4195082101641 -651.473713662176,211.67664114683748 -625.7786384851776,278.6146005069212 -593.2274015923366,342.4999999999976 -554.1766411468353,402.6328978203413 -509.0542054520117,458.35446535581474 -458.35446535581485,509.05420545201156 -402.63289782034144,554.1766411468352 -342.4999999999978,593.2274015923364 -278.61460050692136,625.7786384851772 -211.67664114683768,651.4737136621757 -142.41950821016434,670.0311065026522 -71.60199733834233,681.2474983272624 -2.2737367544323206e-13,684.9999999999951" stroke="#808080" stroke-linecap="round" stroke-linejoin="round" stroke-width="15.0"/><line fill="none" stroke="none" stroke-linecap="round" stroke-width="2.0" x1="0.0" x2="0.0" y1="0.0" y2="0.0"/><polygon fill="none" fill-rule="evenodd" points="0.0,0.0 0.0,0.0 0.0,0.0" stroke-linejoin="round"/></svg>